<svg width="149" height="44" viewBox="0 0 149 44" fill="none" xmlns="http://www.w3.org/2000/svg">
<rect width="149" height="44" rx="10" fill="white"/>
<path d="M28.6609 10H15.3391C12.3904 10 10 12.3904 10 15.3391V28.6609C10 31.6096 12.3904 34 15.3391 34H28.6609C31.6096 34 34 31.6096 34 28.6609V15.3391C34 12.3904 31.6096 10 28.6609 10Z" fill="url(#paint0_linear_1_243)"/>
<path d="M21.4119 32.0433C20.6959 31.7873 20.5426 31.4394 20.2486 29.3998C19.9073 27.0296 19.8327 25.5625 20.0306 25.0978C20.2927 24.4817 21.0049 24.1319 21.9999 24.1282C22.9878 24.1239 23.7061 24.477 23.9692 25.0978C24.168 25.5615 24.0934 27.0296 23.7516 29.3998C23.5195 31.0558 23.392 31.4746 23.0717 31.7559C22.6319 32.1455 22.0078 32.2534 21.4157 32.0438L21.4119 32.0433ZM18.3539 29.6112C15.8815 28.395 14.2976 26.3375 13.7218 23.6002C13.5779 22.8936 13.5535 21.2089 13.6895 20.56C14.0496 18.82 14.7379 17.4593 15.8815 16.2562C17.5296 14.5185 19.6499 13.6 22.0097 13.6C24.3457 13.6 26.4575 14.5016 28.0658 16.1872C29.2895 17.4593 29.9774 18.8055 30.3295 20.5792C30.4495 21.1695 30.4495 22.7792 30.3375 23.4431C29.9639 25.5545 28.8067 27.4469 27.0975 28.7415C26.488 29.2005 25.0016 30.0023 24.7616 30.0023C24.6734 30.0023 24.6654 29.9113 24.7058 29.5423C24.7775 28.9501 24.8497 28.8273 25.1854 28.6861C25.7218 28.4625 26.6338 27.8126 27.1936 27.2509C28.1699 26.2752 28.8637 25.0534 29.2014 23.7151C29.4096 22.8913 29.3856 21.0594 29.1545 20.2112C28.4244 17.5128 26.2254 15.4169 23.5298 14.857C22.7454 14.6967 21.3214 14.6967 20.529 14.857C17.8011 15.4169 15.5453 17.6169 14.8556 20.3846C14.6718 21.1348 14.6718 22.9686 14.8556 23.7207C15.3118 25.5526 16.4966 27.2326 18.0477 28.2327C18.3113 28.4088 18.5867 28.5666 18.872 28.7049C19.2077 28.8488 19.2799 28.9689 19.3437 29.5606C19.3835 29.9207 19.3756 30.0248 19.2879 30.0248C19.2316 30.0248 18.8237 29.8489 18.3919 29.6408L18.3539 29.6112ZM18.3858 26.3577C17.5535 25.6938 16.8178 24.5159 16.5135 23.3611C16.3297 22.6634 16.3297 21.3369 16.5215 20.6416C17.0255 18.7633 18.4097 17.3069 20.3297 16.6228C20.9862 16.3912 22.4397 16.3415 23.2494 16.5173C26.0332 17.1363 28.0095 19.9242 27.6274 22.6896C27.4754 23.8042 27.0914 24.7194 26.4116 25.5695C26.0754 25.999 25.2595 26.7201 25.1156 26.7201C25.0917 26.7201 25.0687 26.4482 25.0687 26.1167V25.5137L25.485 25.0176C27.053 23.1393 26.9409 20.5164 25.229 18.7937C24.5651 18.1237 23.7971 17.7299 22.8049 17.5484C22.1649 17.4298 22.0289 17.4298 21.357 17.5404C20.3368 17.7069 19.5467 18.1031 18.8448 18.7961C17.1217 20.4967 17.0096 23.136 18.578 25.0158L18.9906 25.5137V26.1232C18.9906 26.4594 18.9639 26.7328 18.9311 26.7328C18.8982 26.7328 18.6671 26.5729 18.4191 26.3727L18.3858 26.3577ZM21.1615 23.0915C20.4498 22.76 20.0658 22.1354 20.0578 21.321C20.0578 20.5891 20.4657 19.9505 21.1695 19.5768C21.6177 19.3423 22.4097 19.3423 22.8575 19.5768C23.3546 19.8452 23.7276 20.2968 23.8974 20.8357C24.3616 22.4135 22.6896 23.7957 21.1779 23.0896L21.1615 23.0915Z" fill="white"/>
<path d="M45.99 17.06H47.474L51.338 27H49.686L48.636 24.298H44.8L43.764 27H42.098L45.99 17.06ZM48.328 23.136L46.732 18.782L45.08 23.136H48.328ZM56.5293 27.14C55.9413 27.14 55.4233 27 54.9753 26.72C54.5273 26.44 54.1726 26.076 53.9113 25.628V29.982H52.3713V19.678H53.7293V20.994C54.0093 20.5553 54.3733 20.2053 54.8213 19.944C55.2693 19.6827 55.7686 19.552 56.3193 19.552C56.8233 19.552 57.2853 19.6547 57.7053 19.86C58.1253 20.056 58.4893 20.3313 58.7973 20.686C59.1053 21.0407 59.3433 21.4467 59.5113 21.904C59.6886 22.352 59.7773 22.828 59.7773 23.332C59.7773 24.032 59.6373 24.6713 59.3573 25.25C59.0866 25.8287 58.7039 26.2907 58.2093 26.636C57.7239 26.972 57.1639 27.14 56.5293 27.14ZM56.0253 25.824C56.3519 25.824 56.6459 25.754 56.9073 25.614C57.1779 25.474 57.4066 25.2873 57.5933 25.054C57.7893 24.8207 57.9386 24.5547 58.0413 24.256C58.1439 23.9573 58.1953 23.6493 58.1953 23.332C58.1953 22.996 58.1393 22.6787 58.0273 22.38C57.9153 22.0813 57.7519 21.82 57.5373 21.596C57.3319 21.372 57.0893 21.1947 56.8093 21.064C56.5386 20.9333 56.2399 20.868 55.9133 20.868C55.7173 20.868 55.5119 20.9053 55.2973 20.98C55.0826 21.0547 54.8819 21.1573 54.6953 21.288C54.5086 21.4187 54.3453 21.5727 54.2053 21.75C54.0653 21.9273 53.9673 22.114 53.9113 22.31V24.228C54.0419 24.5267 54.2146 24.7973 54.4293 25.04C54.6439 25.2733 54.8913 25.4647 55.1713 25.614C55.4513 25.754 55.7359 25.824 56.0253 25.824ZM65.3203 27.14C64.7323 27.14 64.2143 27 63.7663 26.72C63.3183 26.44 62.9636 26.076 62.7023 25.628V29.982H61.1623V19.678H62.5203V20.994C62.8003 20.5553 63.1643 20.2053 63.6123 19.944C64.0603 19.6827 64.5596 19.552 65.1103 19.552C65.6143 19.552 66.0763 19.6547 66.4963 19.86C66.9163 20.056 67.2803 20.3313 67.5883 20.686C67.8963 21.0407 68.1343 21.4467 68.3023 21.904C68.4796 22.352 68.5683 22.828 68.5683 23.332C68.5683 24.032 68.4283 24.6713 68.1483 25.25C67.8776 25.8287 67.4949 26.2907 67.0003 26.636C66.5149 26.972 65.9549 27.14 65.3203 27.14ZM64.8163 25.824C65.1429 25.824 65.4369 25.754 65.6983 25.614C65.9689 25.474 66.1976 25.2873 66.3843 25.054C66.5803 24.8207 66.7296 24.5547 66.8323 24.256C66.9349 23.9573 66.9863 23.6493 66.9863 23.332C66.9863 22.996 66.9303 22.6787 66.8183 22.38C66.7063 22.0813 66.5429 21.82 66.3283 21.596C66.1229 21.372 65.8803 21.1947 65.6003 21.064C65.3296 20.9333 65.0309 20.868 64.7043 20.868C64.5083 20.868 64.3029 20.9053 64.0883 20.98C63.8736 21.0547 63.6729 21.1573 63.4863 21.288C63.2996 21.4187 63.1363 21.5727 62.9963 21.75C62.8563 21.9273 62.7583 22.114 62.7023 22.31V24.228C62.8329 24.5267 63.0056 24.7973 63.2203 25.04C63.4349 25.2733 63.6823 25.4647 63.9623 25.614C64.2423 25.754 64.5269 25.824 64.8163 25.824ZM69.9673 16.78H71.5073V24.886C71.5073 25.2593 71.5633 25.4973 71.6753 25.6C71.7873 25.7027 71.9273 25.754 72.0953 25.754C72.282 25.754 72.4546 25.7353 72.6133 25.698C72.7813 25.6607 72.926 25.614 73.0473 25.558L73.2713 26.776C73.0473 26.8693 72.7813 26.9487 72.4733 27.014C72.1653 27.0793 71.89 27.112 71.6473 27.112C71.1246 27.112 70.714 26.9673 70.4153 26.678C70.1166 26.3793 69.9673 25.9687 69.9673 25.446V16.78ZM77.4822 27.14C76.9129 27.14 76.3949 27.042 75.9282 26.846C75.4709 26.6407 75.0742 26.3653 74.7382 26.02C74.4022 25.6653 74.1409 25.264 73.9542 24.816C73.7769 24.3587 73.6882 23.8733 73.6882 23.36C73.6882 22.6693 73.8469 22.0393 74.1642 21.47C74.4816 20.8913 74.9249 20.4293 75.4942 20.084C76.0636 19.7293 76.7309 19.552 77.4962 19.552C78.2616 19.552 78.9196 19.7293 79.4702 20.084C80.0302 20.4293 80.4642 20.8867 80.7722 21.456C81.0802 22.0253 81.2342 22.6367 81.2342 23.29C81.2342 23.402 81.2296 23.5093 81.2202 23.612C81.2109 23.7053 81.2016 23.7847 81.1922 23.85H75.3262C75.3542 24.2793 75.4709 24.6573 75.6762 24.984C75.8909 25.3013 76.1616 25.5533 76.4882 25.74C76.8149 25.9173 77.1649 26.006 77.5382 26.006C77.9489 26.006 78.3362 25.9033 78.7002 25.698C79.0736 25.4927 79.3256 25.222 79.4562 24.886L80.7722 25.264C80.6136 25.6187 80.3709 25.9407 80.0442 26.23C79.7269 26.51 79.3489 26.734 78.9102 26.902C78.4716 27.0607 77.9956 27.14 77.4822 27.14ZM75.2842 22.828H79.7082C79.6802 22.408 79.5589 22.0393 79.3442 21.722C79.1389 21.3953 78.8729 21.1433 78.5462 20.966C78.2289 20.7793 77.8742 20.686 77.4822 20.686C77.0996 20.686 76.7449 20.7793 76.4182 20.966C76.1009 21.1433 75.8396 21.3953 75.6342 21.722C75.4289 22.0393 75.3122 22.408 75.2842 22.828ZM86.1454 27V17.06H90.3174C90.7654 17.06 91.1761 17.1533 91.5494 17.34C91.9227 17.5267 92.2494 17.774 92.5294 18.082C92.8094 18.39 93.0241 18.7353 93.1734 19.118C93.3227 19.5007 93.3974 19.8927 93.3974 20.294C93.3974 20.8447 93.2714 21.372 93.0194 21.876C92.7767 22.3707 92.4267 22.772 91.9694 23.08C91.5214 23.388 90.9987 23.542 90.4014 23.542H87.7134V27H86.1454ZM87.7134 22.156H90.3034C90.6021 22.156 90.8634 22.0767 91.0874 21.918C91.3114 21.75 91.4841 21.526 91.6054 21.246C91.7361 20.966 91.8014 20.6487 91.8014 20.294C91.8014 19.93 91.7267 19.608 91.5774 19.328C91.4281 19.048 91.2321 18.8333 90.9894 18.684C90.7561 18.5253 90.4994 18.446 90.2194 18.446H87.7134V22.156ZM97.8253 27.14C97.2467 27.14 96.7287 27.042 96.2713 26.846C95.814 26.6407 95.4173 26.3607 95.0813 26.006C94.7547 25.6513 94.5027 25.25 94.3253 24.802C94.148 24.3447 94.0593 23.8593 94.0593 23.346C94.0593 22.8327 94.148 22.3473 94.3253 21.89C94.5027 21.4327 94.7547 21.0313 95.0813 20.686C95.4173 20.3313 95.814 20.056 96.2713 19.86C96.738 19.6547 97.256 19.552 97.8253 19.552C98.3947 19.552 98.908 19.6547 99.3653 19.86C99.832 20.056 100.229 20.3313 100.555 20.686C100.891 21.0313 101.148 21.4327 101.325 21.89C101.503 22.3473 101.591 22.8327 101.591 23.346C101.591 23.8593 101.503 24.3447 101.325 24.802C101.148 25.25 100.891 25.6513 100.555 26.006C100.229 26.3607 99.832 26.6407 99.3653 26.846C98.908 27.042 98.3947 27.14 97.8253 27.14ZM95.6413 23.36C95.6413 23.8267 95.7393 24.2467 95.9353 24.62C96.1313 24.9933 96.3927 25.2873 96.7193 25.502C97.046 25.7167 97.4147 25.824 97.8253 25.824C98.2267 25.824 98.5907 25.7167 98.9173 25.502C99.2533 25.278 99.5193 24.9793 99.7153 24.606C99.9113 24.2233 100.009 23.8033 100.009 23.346C100.009 22.8793 99.9113 22.4593 99.7153 22.086C99.5193 21.7127 99.2533 21.4187 98.9173 21.204C98.5907 20.98 98.2267 20.868 97.8253 20.868C97.4147 20.868 97.046 20.98 96.7193 21.204C96.3927 21.428 96.1313 21.7267 95.9353 22.1C95.7393 22.464 95.6413 22.884 95.6413 23.36ZM102.495 23.346C102.495 22.646 102.635 22.0113 102.915 21.442C103.205 20.8633 103.597 20.406 104.091 20.07C104.586 19.7247 105.155 19.552 105.799 19.552C106.359 19.552 106.863 19.6967 107.311 19.986C107.769 20.2753 108.123 20.6347 108.375 21.064V16.78H109.915V25.264C109.915 25.4413 109.948 25.5673 110.013 25.642C110.079 25.7167 110.186 25.7587 110.335 25.768V27C110.046 27.0467 109.822 27.07 109.663 27.07C109.374 27.07 109.127 26.986 108.921 26.818C108.725 26.65 108.623 26.4493 108.613 26.216L108.599 25.67C108.319 26.1367 107.941 26.5007 107.465 26.762C106.989 27.014 106.495 27.14 105.981 27.14C105.477 27.14 105.011 27.042 104.581 26.846C104.161 26.65 103.793 26.3747 103.475 26.02C103.167 25.6653 102.925 25.2593 102.747 24.802C102.579 24.3447 102.495 23.8593 102.495 23.346ZM108.375 24.368V22.45C108.273 22.1513 108.105 21.8853 107.871 21.652C107.647 21.4093 107.391 21.218 107.101 21.078C106.821 20.938 106.541 20.868 106.261 20.868C105.935 20.868 105.636 20.938 105.365 21.078C105.104 21.218 104.875 21.4047 104.679 21.638C104.493 21.8713 104.348 22.1373 104.245 22.436C104.143 22.7347 104.091 23.0473 104.091 23.374C104.091 23.71 104.147 24.0273 104.259 24.326C104.371 24.6153 104.53 24.8767 104.735 25.11C104.95 25.334 105.193 25.5113 105.463 25.642C105.743 25.7633 106.047 25.824 106.373 25.824C106.579 25.824 106.784 25.7867 106.989 25.712C107.204 25.6373 107.405 25.5347 107.591 25.404C107.787 25.2733 107.951 25.1193 108.081 24.942C108.221 24.7647 108.319 24.5733 108.375 24.368ZM115.189 27.14C114.62 27.14 114.102 27.042 113.635 26.846C113.178 26.6407 112.781 26.3607 112.445 26.006C112.109 25.6513 111.848 25.2453 111.661 24.788C111.484 24.3307 111.395 23.8453 111.395 23.332C111.395 22.6413 111.549 22.0113 111.857 21.442C112.175 20.8727 112.613 20.4153 113.173 20.07C113.743 19.7247 114.415 19.552 115.189 19.552C115.936 19.552 116.585 19.72 117.135 20.056C117.695 20.3827 118.106 20.8213 118.367 21.372L116.869 21.848C116.701 21.54 116.463 21.302 116.155 21.134C115.857 20.9567 115.525 20.868 115.161 20.868C114.751 20.868 114.377 20.9753 114.041 21.19C113.715 21.3953 113.453 21.6847 113.257 22.058C113.071 22.422 112.977 22.8467 112.977 23.332C112.977 23.7987 113.075 24.2233 113.271 24.606C113.467 24.9793 113.729 25.278 114.055 25.502C114.391 25.7167 114.765 25.824 115.175 25.824C115.427 25.824 115.67 25.782 115.903 25.698C116.146 25.6047 116.356 25.4833 116.533 25.334C116.711 25.1753 116.837 25.0027 116.911 24.816L118.423 25.264C118.265 25.628 118.027 25.95 117.709 26.23C117.401 26.51 117.033 26.734 116.603 26.902C116.183 27.0607 115.712 27.14 115.189 27.14ZM119.16 24.858C119.16 24.3913 119.29 23.9853 119.552 23.64C119.822 23.2853 120.191 23.0147 120.658 22.828C121.124 22.632 121.666 22.534 122.282 22.534C122.608 22.534 122.94 22.5573 123.276 22.604C123.621 22.6507 123.924 22.7253 124.186 22.828V22.366C124.186 21.8527 124.032 21.4513 123.724 21.162C123.416 20.8727 122.972 20.728 122.394 20.728C121.983 20.728 121.596 20.8027 121.232 20.952C120.868 21.092 120.48 21.2927 120.07 21.554L119.552 20.518C120.037 20.1913 120.522 19.9487 121.008 19.79C121.502 19.6313 122.02 19.552 122.562 19.552C123.542 19.552 124.312 19.8133 124.872 20.336C125.441 20.8493 125.726 21.582 125.726 22.534V25.264C125.726 25.4413 125.754 25.5673 125.81 25.642C125.875 25.7167 125.982 25.7587 126.132 25.768V27C125.992 27.028 125.866 27.0467 125.754 27.056C125.642 27.0653 125.548 27.07 125.474 27.07C125.147 27.07 124.9 26.9907 124.732 26.832C124.564 26.6733 124.466 26.4867 124.438 26.272L124.396 25.852C124.078 26.2627 123.672 26.58 123.178 26.804C122.683 27.028 122.184 27.14 121.68 27.14C121.194 27.14 120.76 27.042 120.378 26.846C119.995 26.6407 119.696 26.3653 119.482 26.02C119.267 25.6747 119.16 25.2873 119.16 24.858ZM123.822 25.306C123.934 25.1847 124.022 25.0633 124.088 24.942C124.153 24.8207 124.186 24.7133 124.186 24.62V23.78C123.924 23.6773 123.649 23.6027 123.36 23.556C123.07 23.5 122.786 23.472 122.506 23.472C121.946 23.472 121.488 23.584 121.134 23.808C120.788 24.032 120.616 24.34 120.616 24.732C120.616 24.9467 120.672 25.152 120.784 25.348C120.905 25.544 121.073 25.7027 121.288 25.824C121.512 25.9453 121.787 26.006 122.114 26.006C122.45 26.006 122.772 25.9407 123.08 25.81C123.388 25.6793 123.635 25.5113 123.822 25.306ZM130.198 27.14C129.582 27.14 128.999 27.042 128.448 26.846C127.897 26.6407 127.426 26.3373 127.034 25.936L127.608 24.9C128.028 25.2733 128.448 25.544 128.868 25.712C129.297 25.88 129.722 25.964 130.142 25.964C130.571 25.964 130.921 25.8847 131.192 25.726C131.463 25.558 131.598 25.3153 131.598 24.998C131.598 24.7647 131.528 24.592 131.388 24.48C131.248 24.368 131.043 24.27 130.772 24.186C130.511 24.102 130.193 24.0087 129.82 23.906C129.297 23.7473 128.859 23.584 128.504 23.416C128.149 23.2387 127.883 23.024 127.706 22.772C127.529 22.52 127.44 22.198 127.44 21.806C127.44 21.33 127.561 20.924 127.804 20.588C128.047 20.252 128.383 19.9953 128.812 19.818C129.251 19.6407 129.755 19.552 130.324 19.552C130.856 19.552 131.346 19.636 131.794 19.804C132.251 19.9627 132.653 20.2147 132.998 20.56L132.34 21.582C132.013 21.2833 131.677 21.064 131.332 20.924C130.996 20.784 130.632 20.714 130.24 20.714C130.016 20.714 129.801 20.742 129.596 20.798C129.391 20.8447 129.218 20.938 129.078 21.078C128.947 21.2087 128.882 21.3953 128.882 21.638C128.882 21.834 128.938 21.9927 129.05 22.114C129.162 22.2353 129.33 22.338 129.554 22.422C129.778 22.506 130.053 22.5993 130.38 22.702C130.949 22.87 131.435 23.038 131.836 23.206C132.237 23.3647 132.545 23.5747 132.76 23.836C132.984 24.088 133.096 24.438 133.096 24.886C133.096 25.5953 132.83 26.1507 132.298 26.552C131.775 26.944 131.075 27.14 130.198 27.14ZM138.531 26.622C138.401 26.6873 138.237 26.7573 138.041 26.832C137.845 26.9067 137.621 26.972 137.369 27.028C137.127 27.084 136.875 27.112 136.613 27.112C136.296 27.112 136.002 27.056 135.731 26.944C135.461 26.832 135.241 26.6547 135.073 26.412C134.915 26.16 134.835 25.838 134.835 25.446V20.868H133.869V19.678H134.835V17.27H136.375V19.678H137.971V20.868H136.375V24.956C136.394 25.208 136.473 25.3947 136.613 25.516C136.763 25.6373 136.945 25.698 137.159 25.698C137.374 25.698 137.579 25.6607 137.775 25.586C137.971 25.5113 138.116 25.4507 138.209 25.404L138.531 26.622Z" fill="#18273A" fill-opacity="0.94"/>
<defs>
<linearGradient id="paint0_linear_1_243" x1="22.1032" y1="34.3038" x2="21.8997" y2="9.99906" gradientUnits="userSpaceOnUse">
<stop stop-color="#822CBE"/>
<stop offset="1" stop-color="#D772FB"/>
</linearGradient>
</defs>
</svg>
