<svg width="214" height="29" viewBox="0 0 214 29" fill="none" xmlns="http://www.w3.org/2000/svg">
<path d="M12.96 15.68H4.52V28H0.12V-1.90735e-06H4.52V11.48H12.96V-1.90735e-06H17.32V28H12.96V15.68ZM26.3556 22.04C26.3556 22.7867 26.5556 23.3733 26.9556 23.8C27.3823 24.2 27.9956 24.4 28.7956 24.4C30.0223 24.4 31.6623 23.8667 33.7156 22.8L35.3156 26.6C34.3556 27.2133 33.2623 27.68 32.0356 28C30.809 28.32 29.5823 28.48 28.3556 28.48C26.3823 28.48 24.809 28 23.6356 27.04C22.489 26.0533 21.9156 24.5867 21.9156 22.64V14.44C21.9156 12.28 22.5823 10.6 23.9156 9.4C25.2756 8.2 27.0623 7.6 29.2756 7.6C31.489 7.6 33.209 8.2 34.4356 9.4C35.689 10.5733 36.3156 12.2133 36.3156 14.32V20.4L26.3556 20.92V22.04ZM31.8756 14.4C31.8756 13.6 31.6223 12.9867 31.1156 12.56C30.609 12.1333 29.9823 11.92 29.2356 11.92C28.2223 11.92 27.489 12.1867 27.0356 12.72C26.5823 13.2533 26.3556 13.84 26.3556 14.48V16.88L31.8756 16.52V14.4ZM40.9794 -1.90735e-06H45.3794V28H40.9794V-1.90735e-06ZM51.6825 -1.90735e-06H56.0825V28H51.6825V-1.90735e-06ZM77.3056 20.64C77.3056 22.88 76.6923 24.7333 75.4656 26.2C74.239 27.6667 72.3856 28.4 69.9056 28.4C67.4256 28.4 65.5456 27.6667 64.2656 26.2C63.0123 24.7067 62.3856 22.8533 62.3856 20.64V15.36C62.3856 12.8267 63.0256 10.8933 64.3056 9.56C65.6123 8.2 67.479 7.52 69.9056 7.52C72.2256 7.52 74.039 8.22667 75.3456 9.64C76.6523 11.0267 77.3056 12.9333 77.3056 15.36V20.64ZM72.9456 15.36C72.9456 13.9467 72.6523 13.0267 72.0656 12.6C71.479 12.1733 70.759 11.96 69.9056 11.96C67.8256 11.96 66.7856 13.0933 66.7856 15.36V21.04C66.7856 22.1067 67.079 22.88 67.6656 23.36C68.2523 23.84 68.999 24.08 69.9056 24.08C70.7856 24.08 71.5056 23.8267 72.0656 23.32C72.6523 22.8133 72.9456 22.0533 72.9456 21.04V15.36Z" fill="#121921"/>
<path d="M81.995 -1.90735e-06H91.115C93.915 -1.90735e-06 95.9817 0.906665 97.315 2.72C98.675 4.50667 99.355 6.76 99.355 9.48C99.355 16.6267 96.7283 20.2 91.475 20.2H86.395V28H81.995V-1.90735e-06ZM90.155 16C91.675 16 92.7817 15.6667 93.475 15C94.195 14.3333 94.6217 13.5867 94.755 12.76C94.8883 11.9067 94.955 10.84 94.955 9.56C94.955 8.14667 94.755 7.06667 94.355 6.32C93.9817 5.54666 93.435 5.04 92.715 4.8C92.0217 4.53333 91.115 4.4 89.995 4.4H86.395V16H90.155ZM117.345 20.64C117.345 22.88 116.731 24.7333 115.505 26.2C114.278 27.6667 112.425 28.4 109.945 28.4C107.465 28.4 105.585 27.6667 104.305 26.2C103.051 24.7067 102.425 22.8533 102.425 20.64V15.36C102.425 12.8267 103.065 10.8933 104.345 9.56C105.651 8.2 107.518 7.52 109.945 7.52C112.265 7.52 114.078 8.22667 115.385 9.64C116.691 11.0267 117.345 12.9333 117.345 15.36V20.64ZM112.985 15.36C112.985 13.9467 112.691 13.0267 112.105 12.6C111.518 12.1733 110.798 11.96 109.945 11.96C107.865 11.96 106.825 13.0933 106.825 15.36V21.04C106.825 22.1067 107.118 22.88 107.705 23.36C108.291 23.84 109.038 24.08 109.945 24.08C110.825 24.08 111.545 23.8267 112.105 23.32C112.691 22.8133 112.985 22.0533 112.985 21.04V15.36ZM122.034 14.16C122.034 11.36 123.167 9.44 125.434 8.4C126.527 7.86667 127.807 7.6 129.274 7.6C130.527 7.6 131.581 7.76 132.434 8.08V-1.90735e-06H136.794V28L134.594 28.2C132.861 28.3867 131.501 28.48 130.514 28.48C129.527 28.48 128.594 28.3867 127.714 28.2C126.861 28.0133 126.007 27.7067 125.154 27.28C124.194 26.8 123.434 26.0933 122.874 25.16C122.314 24.2267 122.034 23.08 122.034 21.72V14.16ZM132.434 12.72C131.474 12.2667 130.581 12.04 129.754 12.04C128.794 12.04 127.994 12.3467 127.354 12.96C126.714 13.5733 126.394 14.5067 126.394 15.76V22C126.394 22.6933 126.767 23.2667 127.514 23.72C128.261 24.1733 129.207 24.4 130.354 24.4C131.074 24.4 131.767 24.3067 132.434 24.12V12.72ZM152.687 27.76C151.034 28.1867 149.434 28.4 147.887 28.4C146.447 28.4 145.247 28.24 144.287 27.92C142.714 27.3867 141.567 26.5733 140.847 25.48C140.154 24.36 139.807 22.8 139.807 20.8V15.68C139.807 13.04 140.501 11.04 141.887 9.68C143.274 8.29333 145.061 7.6 147.247 7.6C148.981 7.6 150.767 8.02667 152.607 8.88L151.407 12.68C150.127 12.1733 148.981 11.92 147.967 11.92C146.767 11.92 145.834 12.2533 145.167 12.92C144.527 13.5867 144.207 14.4267 144.207 15.44V21.24C144.207 22.2533 144.567 22.9733 145.287 23.4C146.007 23.8267 146.927 24.04 148.047 24.04C148.687 24.04 149.327 23.9733 149.967 23.84C150.607 23.7067 151.114 23.5733 151.487 23.44L152.687 27.76ZM170.56 28C167.68 28.2933 165.6 28.44 164.32 28.44C161.52 28.44 159.293 27.92 157.64 26.88C155.986 25.84 155.16 23.96 155.16 21.24V17.92C155.16 15.28 156.08 13.5067 157.92 12.6C158.8 12.1733 159.8 11.96 160.92 11.96C161.906 11.96 162.88 12.0933 163.84 12.36C164.8 12.6267 165.573 12.92 166.16 13.24C166.16 12.2533 165.76 11.5867 164.96 11.24C164.16 10.8667 163.133 10.68 161.88 10.68L162.24 7.64C164.8 7.64 166.68 8.05333 167.88 8.88C169.106 9.68 169.853 10.64 170.12 11.76C170.413 12.88 170.56 14.32 170.56 16.08V28ZM166.16 17.92C165.68 17.5733 165 17.2533 164.12 16.96C163.266 16.64 162.48 16.48 161.76 16.48C161.12 16.48 160.6 16.64 160.2 16.96C159.8 17.28 159.6 17.7867 159.6 18.48V20.68C159.6 23.1067 161.026 24.32 163.88 24.32C164.706 24.32 165.466 24.2533 166.16 24.12V17.92ZM177.84 22.48C177.84 22.96 178.08 23.4133 178.56 23.84C179.067 24.2667 179.827 24.48 180.84 24.48C181.72 24.48 182.4 24.2667 182.88 23.84C183.36 23.3867 183.6 22.8667 183.6 22.28C183.6 21.4533 183.293 20.84 182.68 20.44C182.093 20.04 181.133 19.6 179.8 19.12C178.653 18.7467 177.707 18.3733 176.96 18C176.213 17.6267 175.547 17.0667 174.96 16.32C174.373 15.5733 174.027 14.6 173.92 13.4C173.84 12.4933 174.013 11.5867 174.44 10.68C174.893 9.74667 175.64 8.98667 176.68 8.4C177.747 7.78667 179.107 7.48 180.76 7.48C181.613 7.48 182.36 7.57333 183 7.76C183.667 7.92 184.187 8.09333 184.56 8.28C184.933 8.46667 185.16 8.58667 185.24 8.64L183.96 12.72C183.907 12.6667 183.76 12.5733 183.52 12.44C183.307 12.28 182.96 12.1333 182.48 12C182 11.8667 181.427 11.8 180.76 11.8C179.32 11.8 178.6 12.2 178.6 13C178.6 13.16 178.627 13.32 178.68 13.48C178.76 13.8533 179.04 14.1733 179.52 14.44C180 14.68 180.707 14.9733 181.64 15.32C182.947 15.8 184.04 16.28 184.92 16.76C185.827 17.2133 186.6 17.9067 187.24 18.84C187.907 19.7467 188.24 20.92 188.24 22.36C188.24 23.4533 187.973 24.48 187.44 25.44C186.907 26.3733 186.08 27.1333 184.96 27.72C183.867 28.3067 182.493 28.6 180.84 28.6C179.32 28.6 178 28.3467 176.88 27.84C175.787 27.3067 174.947 26.6133 174.36 25.76C173.8 24.9067 173.493 23.96 173.44 22.92L177.84 22.48ZM197.067 28.52C193.013 28.44 190.987 26.5067 190.987 22.72V-1.90735e-06H195.467V7.96H199.267L198.307 12.08H195.467V22.72C195.467 23.6267 195.72 24.24 196.227 24.56C196.733 24.8533 197.453 25 198.387 25L197.067 28.52ZM202.643 7.96H206.723L207.043 8.12C208.136 7.74667 209.163 7.56 210.123 7.56C210.79 7.56 211.763 7.69333 213.043 7.96L213.843 8.12L212.803 12.4C212.056 12.0267 211.323 11.84 210.603 11.84C209.616 11.84 208.776 12.1467 208.083 12.76C207.39 13.3467 207.043 14.1333 207.043 15.12V28H202.643V7.96ZM213.15 26C213.15 26.5333 212.95 27 212.55 27.4C212.15 27.8 211.67 28 211.11 28C210.577 28 210.11 27.8 209.71 27.4C209.31 27 209.11 26.5333 209.11 26C209.11 25.44 209.31 24.96 209.71 24.56C210.11 24.16 210.577 23.96 211.11 23.96C211.67 23.96 212.15 24.16 212.55 24.56C212.95 24.96 213.15 25.44 213.15 26Z" fill="#E12929"/>
</svg>
