<svg width="158" height="44" viewBox="0 0 158 44" fill="none" xmlns="http://www.w3.org/2000/svg">
<rect width="158" height="44" rx="10" fill="white"/>
<path d="M21.9995 14.8C21.1912 14.8 20.5361 14.1286 20.5361 13.3V11.5C20.5361 10.6714 21.1912 10 21.9995 10C22.8079 10 23.463 10.6714 23.463 11.5V13.3C23.463 14.1286 22.8079 14.8 21.9995 14.8Z" fill="#F9A825"/>
<path d="M21.9995 27.4C21.1912 27.4 20.5361 26.7286 20.5361 25.9V18.1C20.5361 17.2714 21.1912 16.6 21.9995 16.6C22.8079 16.6 23.463 17.2714 23.463 18.1V25.9C23.463 26.7286 22.8079 27.4 21.9995 27.4Z" fill="#F9A825"/>
<path d="M21.9995 34C21.1912 34 20.5361 33.3286 20.5361 32.5V30.7C20.5361 29.8714 21.1912 29.2 21.9995 29.2C22.8079 29.2 23.463 29.8714 23.463 30.7V32.5C23.463 33.3286 22.8079 34 21.9995 34Z" fill="#F9A825"/>
<path d="M16.7315 29.2C15.9231 29.2 15.2681 28.5286 15.2681 27.7V25.9C15.2681 25.0714 15.9231 24.4 16.7315 24.4C17.5399 24.4 18.1949 25.0714 18.1949 25.9V27.7C18.1949 28.5286 17.5399 29.2 16.7315 29.2Z" fill="#E53935"/>
<path d="M27.2686 19.6C26.4602 19.6 25.8052 18.9286 25.8052 18.1V16.3C25.8052 15.4714 26.4602 14.8 27.2686 14.8C28.077 14.8 28.732 15.4714 28.732 16.3V18.1C28.732 18.9286 28.077 19.6 27.2686 19.6Z" fill="#43A047"/>
<path d="M16.7315 22.6C15.9231 22.6 15.2681 21.9286 15.2681 21.1V15.7C15.2681 14.8714 15.9231 14.2 16.7315 14.2C17.5399 14.2 18.1949 14.8714 18.1949 15.7V21.1C18.1949 21.9286 17.5399 22.6 16.7315 22.6Z" fill="#E53935"/>
<path d="M27.2686 29.8C26.4602 29.8 25.8052 29.1286 25.8052 28.3V22.9C25.8052 22.0714 26.4602 21.4 27.2686 21.4C28.077 21.4 28.732 22.0714 28.732 22.9V28.3C28.732 29.1286 28.077 29.8 27.2686 29.8Z" fill="#43A047"/>
<path d="M11.4634 24.4C10.655 24.4 10 23.7286 10 22.9V21.1C10 20.2714 10.655 19.6 11.4634 19.6C12.2718 19.6 12.9268 20.2714 12.9268 21.1V22.9C12.9268 23.7286 12.2718 24.4 11.4634 24.4Z" fill="#1565C0"/>
<path d="M32.5367 24.4C31.7283 24.4 31.0732 23.7286 31.0732 22.9V21.1C31.0732 20.2714 31.7283 19.6 32.5367 19.6C33.345 19.6 34.0001 20.2714 34.0001 21.1V22.9C34.0001 23.7286 33.345 24.4 32.5367 24.4Z" fill="#1E88E5"/>
<path d="M50.078 25.768C49.238 26.636 48.272 27.07 47.18 27.07C46.5173 27.07 45.9013 26.9347 45.332 26.664C44.7627 26.384 44.268 26.0107 43.848 25.544C43.428 25.0773 43.0967 24.536 42.854 23.92C42.6207 23.304 42.504 22.66 42.504 21.988C42.504 21.316 42.6207 20.6767 42.854 20.07C43.0967 19.4633 43.428 18.9313 43.848 18.474C44.268 18.0167 44.7673 17.6573 45.346 17.396C45.9247 17.1253 46.5547 16.99 47.236 16.99C48.188 16.99 48.986 17.1907 49.63 17.592C50.274 17.984 50.7593 18.5067 51.086 19.16L49.882 20.028C49.6113 19.4867 49.238 19.0807 48.762 18.81C48.286 18.5393 47.7633 18.404 47.194 18.404C46.7273 18.404 46.3027 18.5067 45.92 18.712C45.5373 18.908 45.2107 19.174 44.94 19.51C44.6693 19.8367 44.4593 20.2193 44.31 20.658C44.17 21.0967 44.1 21.554 44.1 22.03C44.1 22.534 44.1793 23.0053 44.338 23.444C44.506 23.8827 44.73 24.2653 45.01 24.592C45.2993 24.9187 45.64 25.18 46.032 25.376C46.424 25.5627 46.8487 25.656 47.306 25.656C47.81 25.656 48.2907 25.5393 48.748 25.306C49.2147 25.0727 49.658 24.704 50.078 24.2V23.136H47.992V21.974H51.394V27H50.078V25.768ZM56.2765 27.14C55.6978 27.14 55.1752 27.0373 54.7085 26.832C54.2512 26.6267 53.8592 26.3513 53.5325 26.006C53.2058 25.6607 52.9538 25.2593 52.7765 24.802C52.5992 24.3353 52.5105 23.85 52.5105 23.346C52.5105 22.842 52.5992 22.3613 52.7765 21.904C52.9538 21.4373 53.2058 21.0313 53.5325 20.686C53.8685 20.3407 54.2652 20.0653 54.7225 19.86C55.1892 19.6547 55.7072 19.552 56.2765 19.552C56.8458 19.552 57.3592 19.6547 57.8165 19.86C58.2832 20.0653 58.6798 20.3407 59.0065 20.686C59.3425 21.0313 59.5992 21.4373 59.7765 21.904C59.9538 22.3613 60.0425 22.842 60.0425 23.346C60.0425 23.85 59.9538 24.3353 59.7765 24.802C59.5992 25.2593 59.3425 25.6607 59.0065 26.006C58.6798 26.3513 58.2832 26.6267 57.8165 26.832C57.3592 27.0373 56.8458 27.14 56.2765 27.14ZM54.0925 23.36C54.0925 23.7147 54.1485 24.0413 54.2605 24.34C54.3725 24.6387 54.5265 24.9 54.7225 25.124C54.9185 25.3387 55.1472 25.5113 55.4085 25.642C55.6792 25.7633 55.9685 25.824 56.2765 25.824C56.5845 25.824 56.8692 25.7633 57.1305 25.642C57.4012 25.5113 57.6345 25.334 57.8305 25.11C58.0265 24.886 58.1805 24.6247 58.2925 24.326C58.4045 24.0273 58.4605 23.7007 58.4605 23.346C58.4605 23.0007 58.4045 22.6787 58.2925 22.38C58.1805 22.072 58.0265 21.806 57.8305 21.582C57.6345 21.358 57.4012 21.1853 57.1305 21.064C56.8692 20.9333 56.5845 20.868 56.2765 20.868C55.9778 20.868 55.6932 20.9333 55.4225 21.064C55.1612 21.1947 54.9325 21.372 54.7365 21.596C54.5405 21.82 54.3818 22.086 54.2605 22.394C54.1485 22.6927 54.0925 23.0147 54.0925 23.36ZM64.6984 27.14C64.1197 27.14 63.597 27.0373 63.1304 26.832C62.673 26.6267 62.281 26.3513 61.9544 26.006C61.6277 25.6607 61.3757 25.2593 61.1984 24.802C61.021 24.3353 60.9324 23.85 60.9324 23.346C60.9324 22.842 61.021 22.3613 61.1984 21.904C61.3757 21.4373 61.6277 21.0313 61.9544 20.686C62.2904 20.3407 62.687 20.0653 63.1444 19.86C63.611 19.6547 64.129 19.552 64.6984 19.552C65.2677 19.552 65.781 19.6547 66.2384 19.86C66.705 20.0653 67.1017 20.3407 67.4284 20.686C67.7644 21.0313 68.021 21.4373 68.1984 21.904C68.3757 22.3613 68.4644 22.842 68.4644 23.346C68.4644 23.85 68.3757 24.3353 68.1984 24.802C68.021 25.2593 67.7644 25.6607 67.4284 26.006C67.1017 26.3513 66.705 26.6267 66.2384 26.832C65.781 27.0373 65.2677 27.14 64.6984 27.14ZM62.5144 23.36C62.5144 23.7147 62.5704 24.0413 62.6824 24.34C62.7944 24.6387 62.9484 24.9 63.1444 25.124C63.3404 25.3387 63.569 25.5113 63.8304 25.642C64.101 25.7633 64.3904 25.824 64.6984 25.824C65.0064 25.824 65.291 25.7633 65.5524 25.642C65.823 25.5113 66.0564 25.334 66.2524 25.11C66.4484 24.886 66.6024 24.6247 66.7144 24.326C66.8264 24.0273 66.8824 23.7007 66.8824 23.346C66.8824 23.0007 66.8264 22.6787 66.7144 22.38C66.6024 22.072 66.4484 21.806 66.2524 21.582C66.0564 21.358 65.823 21.1853 65.5524 21.064C65.291 20.9333 65.0064 20.868 64.6984 20.868C64.3997 20.868 64.115 20.9333 63.8444 21.064C63.583 21.1947 63.3544 21.372 63.1584 21.596C62.9624 21.82 62.8037 22.086 62.6824 22.394C62.5704 22.6927 62.5144 23.0147 62.5144 23.36ZM72.7283 27.07C72.2336 27.07 71.7809 26.972 71.3703 26.776C70.9596 26.5707 70.6049 26.2953 70.3063 25.95C70.0169 25.6047 69.7883 25.208 69.6203 24.76C69.4616 24.312 69.3823 23.8407 69.3823 23.346C69.3823 22.8233 69.4663 22.3333 69.6343 21.876C69.8023 21.4093 70.0356 21.008 70.3343 20.672C70.6329 20.3267 70.9876 20.056 71.3983 19.86C71.8183 19.6547 72.2803 19.552 72.7843 19.552C73.3723 19.552 73.8856 19.692 74.3243 19.972C74.7723 20.252 75.1409 20.616 75.4303 21.064V19.678H76.7883V26.79C76.7883 27.322 76.6903 27.7933 76.4943 28.204C76.2983 28.6147 76.0229 28.96 75.6683 29.24C75.3229 29.5293 74.9123 29.7487 74.4363 29.898C73.9603 30.0473 73.4469 30.122 72.8963 30.122C72.0843 30.122 71.4076 29.982 70.8663 29.702C70.3343 29.4313 69.8863 29.0487 69.5223 28.554L70.3903 27.742C70.6703 28.134 71.0296 28.4327 71.4683 28.638C71.9163 28.8433 72.3923 28.946 72.8963 28.946C73.2136 28.946 73.5123 28.904 73.7923 28.82C74.0816 28.736 74.3336 28.6053 74.5483 28.428C74.7629 28.2507 74.9309 28.0267 75.0523 27.756C75.1829 27.4853 75.2483 27.1633 75.2483 26.79V25.67C74.9869 26.118 74.6276 26.4633 74.1703 26.706C73.7129 26.9487 73.2323 27.07 72.7283 27.07ZM73.2323 25.824C73.4656 25.824 73.6896 25.7867 73.9043 25.712C74.1189 25.628 74.3149 25.5207 74.4923 25.39C74.6789 25.25 74.8376 25.096 74.9683 24.928C75.0989 24.7507 75.1923 24.564 75.2483 24.368V22.45C75.1549 22.2167 75.0336 22.0067 74.8843 21.82C74.7349 21.624 74.5623 21.456 74.3663 21.316C74.1796 21.176 73.9789 21.0687 73.7643 20.994C73.5496 20.91 73.3349 20.868 73.1203 20.868C72.7843 20.868 72.4809 20.9427 72.2103 21.092C71.9489 21.232 71.7249 21.4233 71.5383 21.666C71.3516 21.8993 71.2069 22.1653 71.1043 22.464C71.0016 22.7627 70.9503 23.0707 70.9503 23.388C70.9503 23.724 71.0063 24.0413 71.1183 24.34C71.2396 24.6293 71.4029 24.886 71.6083 25.11C71.8136 25.3247 72.0516 25.4973 72.3223 25.628C72.6023 25.7587 72.9056 25.824 73.2323 25.824ZM78.6489 16.78H80.1889V24.886C80.1889 25.1567 80.2589 25.3713 80.3989 25.53C80.5389 25.6793 80.7349 25.754 80.9869 25.754C81.0896 25.754 81.2063 25.7353 81.3369 25.698C81.4769 25.6607 81.6076 25.6187 81.7289 25.572L81.9529 26.776C81.7289 26.8787 81.4629 26.958 81.1549 27.014C80.8469 27.0793 80.5716 27.112 80.3289 27.112C79.7969 27.112 79.3816 26.9673 79.0829 26.678C78.7936 26.3887 78.6489 25.978 78.6489 25.446V16.78ZM86.1639 27.14C85.5945 27.14 85.0765 27.042 84.6099 26.846C84.1432 26.6407 83.7419 26.3653 83.4059 26.02C83.0792 25.6747 82.8225 25.2733 82.6359 24.816C82.4585 24.3587 82.3699 23.8733 82.3699 23.36C82.3699 22.8467 82.4585 22.3613 82.6359 21.904C82.8225 21.4373 83.0792 21.0313 83.4059 20.686C83.7419 20.3313 84.1432 20.056 84.6099 19.86C85.0765 19.6547 85.5992 19.552 86.1779 19.552C86.7472 19.552 87.2605 19.6547 87.7179 19.86C88.1845 20.0653 88.5812 20.3407 88.9079 20.686C89.2345 21.022 89.4819 21.4187 89.6499 21.876C89.8272 22.324 89.9159 22.7953 89.9159 23.29C89.9159 23.402 89.9112 23.5093 89.9019 23.612C89.8925 23.7053 89.8832 23.7847 89.8739 23.85H84.0079C84.0359 24.1767 84.1105 24.4707 84.2319 24.732C84.3625 24.9933 84.5259 25.222 84.7219 25.418C84.9272 25.6047 85.1559 25.7493 85.4079 25.852C85.6692 25.9547 85.9399 26.006 86.2199 26.006C86.4252 26.006 86.6259 25.9827 86.8219 25.936C87.0272 25.88 87.2139 25.8053 87.3819 25.712C87.5499 25.6093 87.6992 25.488 87.8299 25.348C87.9605 25.208 88.0632 25.054 88.1379 24.886L89.4539 25.264C89.2019 25.8147 88.7819 26.2673 88.1939 26.622C87.6152 26.9673 86.9385 27.14 86.1639 27.14ZM88.3899 22.786C88.3619 22.478 88.2825 22.1933 88.1519 21.932C88.0305 21.6707 87.8719 21.4513 87.6759 21.274C87.4799 21.0873 87.2512 20.9427 86.9899 20.84C86.7285 20.7373 86.4532 20.686 86.1639 20.686C85.8745 20.686 85.5992 20.7373 85.3379 20.84C85.0859 20.9427 84.8619 21.0873 84.6659 21.274C84.4699 21.4513 84.3112 21.6707 84.1899 21.932C84.0685 22.1933 83.9939 22.478 83.9659 22.786H88.3899ZM94.827 27V17.06H98.999C99.447 17.06 99.8577 17.1533 100.231 17.34C100.614 17.5267 100.94 17.774 101.211 18.082C101.482 18.3807 101.692 18.726 101.841 19.118C102 19.5007 102.079 19.8927 102.079 20.294C102.079 20.714 102.004 21.12 101.855 21.512C101.715 21.8947 101.514 22.24 101.253 22.548C100.992 22.8467 100.674 23.0893 100.301 23.276C99.937 23.4533 99.531 23.542 99.083 23.542H96.395V27H94.827ZM96.395 22.156H98.985C99.209 22.156 99.4097 22.1093 99.587 22.016C99.7737 21.9227 99.9324 21.792 100.063 21.624C100.194 21.456 100.296 21.26 100.371 21.036C100.446 20.812 100.483 20.5647 100.483 20.294C100.483 20.014 100.441 19.762 100.357 19.538C100.273 19.314 100.156 19.1227 100.007 18.964C99.8577 18.796 99.685 18.67 99.489 18.586C99.3024 18.4927 99.1064 18.446 98.901 18.446H96.395V22.156ZM106.521 27.14C105.942 27.14 105.419 27.0373 104.953 26.832C104.495 26.6267 104.103 26.3513 103.777 26.006C103.45 25.6607 103.198 25.2593 103.021 24.802C102.843 24.3353 102.755 23.85 102.755 23.346C102.755 22.842 102.843 22.3613 103.021 21.904C103.198 21.4373 103.45 21.0313 103.777 20.686C104.113 20.3407 104.509 20.0653 104.967 19.86C105.433 19.6547 105.951 19.552 106.521 19.552C107.09 19.552 107.603 19.6547 108.061 19.86C108.527 20.0653 108.924 20.3407 109.251 20.686C109.587 21.0313 109.843 21.4373 110.021 21.904C110.198 22.3613 110.287 22.842 110.287 23.346C110.287 23.85 110.198 24.3353 110.021 24.802C109.843 25.2593 109.587 25.6607 109.251 26.006C108.924 26.3513 108.527 26.6267 108.061 26.832C107.603 27.0373 107.09 27.14 106.521 27.14ZM104.337 23.36C104.337 23.7147 104.393 24.0413 104.505 24.34C104.617 24.6387 104.771 24.9 104.967 25.124C105.163 25.3387 105.391 25.5113 105.653 25.642C105.923 25.7633 106.213 25.824 106.521 25.824C106.829 25.824 107.113 25.7633 107.375 25.642C107.645 25.5113 107.879 25.334 108.075 25.11C108.271 24.886 108.425 24.6247 108.537 24.326C108.649 24.0273 108.705 23.7007 108.705 23.346C108.705 23.0007 108.649 22.6787 108.537 22.38C108.425 22.072 108.271 21.806 108.075 21.582C107.879 21.358 107.645 21.1853 107.375 21.064C107.113 20.9333 106.829 20.868 106.521 20.868C106.222 20.868 105.937 20.9333 105.667 21.064C105.405 21.1947 105.177 21.372 104.981 21.596C104.785 21.82 104.626 22.086 104.505 22.394C104.393 22.6927 104.337 23.0147 104.337 23.36ZM114.635 27.14C114.14 27.14 113.683 27.042 113.263 26.846C112.843 26.6407 112.479 26.3653 112.171 26.02C111.863 25.6747 111.62 25.2733 111.443 24.816C111.275 24.3493 111.191 23.85 111.191 23.318C111.191 22.8047 111.27 22.324 111.429 21.876C111.597 21.4187 111.825 21.0173 112.115 20.672C112.413 20.3267 112.759 20.056 113.151 19.86C113.552 19.6547 113.991 19.552 114.467 19.552C115.055 19.552 115.573 19.6967 116.021 19.986C116.469 20.266 116.819 20.6253 117.071 21.064V16.78H118.611V25.18C118.611 25.3573 118.639 25.4833 118.695 25.558C118.76 25.6327 118.872 25.6747 119.031 25.684V27C118.872 27.028 118.741 27.0467 118.639 27.056C118.545 27.0653 118.466 27.07 118.401 27.07C118.093 27.07 117.841 26.9907 117.645 26.832C117.449 26.6733 117.341 26.468 117.323 26.216L117.295 25.67C117.024 26.1273 116.655 26.4867 116.189 26.748C115.722 27.0093 115.204 27.14 114.635 27.14ZM115.013 25.824C115.237 25.824 115.461 25.7867 115.685 25.712C115.909 25.6373 116.114 25.5347 116.301 25.404C116.487 25.2733 116.646 25.1193 116.777 24.942C116.917 24.7647 117.015 24.5733 117.071 24.368V22.45C116.987 22.2167 116.865 22.002 116.707 21.806C116.557 21.61 116.385 21.442 116.189 21.302C115.993 21.162 115.783 21.0547 115.559 20.98C115.344 20.9053 115.125 20.868 114.901 20.868C114.593 20.868 114.308 20.938 114.047 21.078C113.795 21.218 113.575 21.4047 113.389 21.638C113.202 21.8713 113.053 22.1373 112.941 22.436C112.838 22.7347 112.787 23.0427 112.787 23.36C112.787 23.696 112.843 24.0133 112.955 24.312C113.076 24.6107 113.239 24.872 113.445 25.096C113.65 25.32 113.883 25.4973 114.145 25.628C114.415 25.7587 114.705 25.824 115.013 25.824ZM120.091 23.332C120.091 22.8187 120.179 22.3333 120.357 21.876C120.534 21.4187 120.786 21.0173 121.113 20.672C121.449 20.3267 121.85 20.056 122.317 19.86C122.783 19.6547 123.306 19.552 123.885 19.552C124.641 19.552 125.289 19.72 125.831 20.056C126.381 20.3827 126.792 20.8213 127.063 21.372L125.565 21.848C125.387 21.54 125.149 21.302 124.851 21.134C124.552 20.9567 124.221 20.868 123.857 20.868C123.549 20.868 123.259 20.9287 122.989 21.05C122.727 21.1713 122.499 21.344 122.303 21.568C122.107 21.7827 121.953 22.0393 121.841 22.338C121.729 22.6367 121.673 22.968 121.673 23.332C121.673 23.6867 121.729 24.018 121.841 24.326C121.962 24.6247 122.121 24.886 122.317 25.11C122.522 25.334 122.755 25.5113 123.017 25.642C123.287 25.7633 123.572 25.824 123.871 25.824C124.057 25.824 124.244 25.8007 124.431 25.754C124.617 25.698 124.785 25.6233 124.935 25.53C125.093 25.4367 125.229 25.3293 125.341 25.208C125.462 25.0867 125.551 24.956 125.607 24.816L127.119 25.264C126.876 25.8147 126.47 26.2673 125.901 26.622C125.331 26.9673 124.659 27.14 123.885 27.14C123.315 27.14 122.797 27.0373 122.331 26.832C121.864 26.6267 121.463 26.3513 121.127 26.006C120.8 25.6513 120.543 25.2453 120.357 24.788C120.179 24.3307 120.091 23.8453 120.091 23.332ZM130.333 27.14C129.978 27.14 129.647 27.084 129.339 26.972C129.04 26.8507 128.779 26.6873 128.555 26.482C128.34 26.2767 128.168 26.034 128.037 25.754C127.916 25.474 127.855 25.1707 127.855 24.844C127.855 24.4987 127.93 24.186 128.079 23.906C128.228 23.626 128.438 23.3833 128.709 23.178C128.989 22.9727 129.316 22.814 129.689 22.702C130.072 22.59 130.492 22.534 130.949 22.534C131.294 22.534 131.635 22.5667 131.971 22.632C132.307 22.688 132.61 22.7673 132.881 22.87V22.366C132.881 21.8247 132.727 21.4047 132.419 21.106C132.111 20.798 131.668 20.644 131.089 20.644C130.697 20.644 130.31 20.7187 129.927 20.868C129.554 21.008 129.166 21.2133 128.765 21.484L128.289 20.504C129.232 19.8693 130.212 19.552 131.229 19.552C132.237 19.552 133.021 19.8087 133.581 20.322C134.141 20.8353 134.421 21.5727 134.421 22.534V25.18C134.421 25.5067 134.556 25.6747 134.827 25.684V27C134.678 27.028 134.547 27.0467 134.435 27.056C134.332 27.0653 134.23 27.07 134.127 27.07C133.828 27.07 133.595 26.9953 133.427 26.846C133.268 26.6967 133.17 26.5053 133.133 26.272L133.091 25.81C132.764 26.2393 132.358 26.5707 131.873 26.804C131.397 27.028 130.884 27.14 130.333 27.14ZM130.753 26.006C131.126 26.006 131.476 25.9407 131.803 25.81C132.139 25.67 132.4 25.4787 132.587 25.236C132.783 25.068 132.881 24.8907 132.881 24.704V23.738C132.62 23.6353 132.34 23.556 132.041 23.5C131.752 23.444 131.467 23.416 131.187 23.416C130.636 23.416 130.184 23.5373 129.829 23.78C129.484 24.0133 129.311 24.326 129.311 24.718C129.311 25.082 129.446 25.39 129.717 25.642C129.988 25.8847 130.333 26.006 130.753 26.006ZM138.949 27.14C138.361 27.14 137.773 27.0467 137.185 26.86C136.607 26.664 136.107 26.3887 135.687 26.034L136.303 25.054C136.742 25.3713 137.176 25.614 137.605 25.782C138.035 25.9407 138.473 26.02 138.921 26.02C139.379 26.02 139.738 25.9313 139.999 25.754C140.27 25.5767 140.405 25.3247 140.405 24.998C140.405 24.69 140.256 24.466 139.957 24.326C139.659 24.186 139.192 24.032 138.557 23.864C138.1 23.7427 137.708 23.626 137.381 23.514C137.055 23.402 136.789 23.2713 136.583 23.122C136.378 22.9727 136.229 22.8 136.135 22.604C136.042 22.408 135.995 22.17 135.995 21.89C135.995 21.5167 136.065 21.1853 136.205 20.896C136.355 20.6067 136.555 20.364 136.807 20.168C137.069 19.9627 137.372 19.8087 137.717 19.706C138.063 19.6033 138.436 19.552 138.837 19.552C139.388 19.552 139.901 19.636 140.377 19.804C140.853 19.972 141.278 20.2147 141.651 20.532L140.993 21.456C140.312 20.9147 139.589 20.644 138.823 20.644C138.431 20.644 138.1 20.728 137.829 20.896C137.568 21.0547 137.437 21.3113 137.437 21.666C137.437 21.8153 137.465 21.9413 137.521 22.044C137.577 22.1467 137.666 22.2353 137.787 22.31C137.918 22.3847 138.081 22.4547 138.277 22.52C138.483 22.576 138.735 22.6413 139.033 22.716C139.528 22.8373 139.953 22.9587 140.307 23.08C140.671 23.2013 140.97 23.346 141.203 23.514C141.437 23.6727 141.609 23.864 141.721 24.088C141.833 24.3027 141.889 24.564 141.889 24.872C141.889 25.572 141.623 26.1273 141.091 26.538C140.569 26.9393 139.855 27.14 138.949 27.14ZM147.309 26.622C147.113 26.7153 146.842 26.8227 146.497 26.944C146.151 27.056 145.783 27.112 145.391 27.112C145.148 27.112 144.919 27.0793 144.705 27.014C144.49 26.9487 144.299 26.8507 144.131 26.72C143.972 26.5893 143.846 26.4213 143.753 26.216C143.659 26.0013 143.613 25.7447 143.613 25.446V20.868H142.647V19.678H143.613V17.27H145.153V19.678H146.749V20.868H145.153V24.956C145.171 25.2173 145.251 25.4087 145.391 25.53C145.54 25.642 145.722 25.698 145.937 25.698C146.151 25.698 146.357 25.6607 146.553 25.586C146.749 25.5113 146.893 25.4507 146.987 25.404L147.309 26.622Z" fill="#18273A" fill-opacity="0.94"/>
</svg>
