<svg width="133" height="18" viewBox="0 0 133 18" fill="none" xmlns="http://www.w3.org/2000/svg">
<path d="M8.576 9.608H3.512V17H0.872V0.199999H3.512V7.088H8.576V0.199999H11.192V17H8.576V9.608ZM16.6134 13.424C16.6134 13.872 16.7334 14.224 16.9734 14.48C17.2294 14.72 17.5974 14.84 18.0774 14.84C18.8134 14.84 19.7974 14.52 21.0294 13.88L21.9894 16.16C21.4134 16.528 20.7574 16.808 20.0214 17C19.2854 17.192 18.5494 17.288 17.8134 17.288C16.6294 17.288 15.6854 17 14.9814 16.424C14.2934 15.832 13.9494 14.952 13.9494 13.784V8.864C13.9494 7.568 14.3494 6.56 15.1494 5.84C15.9654 5.12 17.0374 4.76 18.3654 4.76C19.6934 4.76 20.7254 5.12 21.4614 5.84C22.2134 6.544 22.5894 7.528 22.5894 8.792V12.44L16.6134 12.752V13.424ZM19.9254 8.84C19.9254 8.36 19.7734 7.992 19.4694 7.736C19.1654 7.48 18.7894 7.352 18.3414 7.352C17.7334 7.352 17.2934 7.512 17.0214 7.832C16.7494 8.152 16.6134 8.504 16.6134 8.888V10.328L19.9254 10.112V8.84ZM25.3876 0.199999H28.0276V17H25.3876V0.199999ZM31.8095 0.199999H34.4495V17H31.8095V0.199999ZM47.1834 12.584C47.1834 13.928 46.8154 15.04 46.0794 15.92C45.3434 16.8 44.2314 17.24 42.7434 17.24C41.2554 17.24 40.1274 16.8 39.3594 15.92C38.6074 15.024 38.2314 13.912 38.2314 12.584V9.416C38.2314 7.896 38.6154 6.736 39.3834 5.936C40.1674 5.12 41.2874 4.712 42.7434 4.712C44.1354 4.712 45.2234 5.136 46.0074 5.984C46.7914 6.816 47.1834 7.96 47.1834 9.416V12.584ZM44.5674 9.416C44.5674 8.568 44.3914 8.016 44.0394 7.76C43.6874 7.504 43.2554 7.376 42.7434 7.376C41.4954 7.376 40.8714 8.056 40.8714 9.416V12.824C40.8714 13.464 41.0474 13.928 41.3994 14.216C41.7514 14.504 42.1994 14.648 42.7434 14.648C43.2714 14.648 43.7034 14.496 44.0394 14.192C44.3914 13.888 44.5674 13.432 44.5674 12.824V9.416Z" fill="#121921"/>
<path d="M49.997 0.199999H55.469C57.149 0.199999 58.389 0.743999 59.189 1.832C60.005 2.904 60.413 4.256 60.413 5.888C60.413 10.176 58.837 12.32 55.685 12.32H52.637V17H49.997V0.199999ZM54.893 9.8C55.805 9.8 56.469 9.6 56.885 9.2C57.317 8.8 57.573 8.352 57.653 7.856C57.733 7.344 57.773 6.704 57.773 5.936C57.773 5.088 57.653 4.44 57.413 3.992C57.189 3.528 56.861 3.224 56.429 3.08C56.013 2.92 55.469 2.84 54.797 2.84H52.637V9.8H54.893ZM71.2068 12.584C71.2068 13.928 70.8388 15.04 70.1028 15.92C69.3668 16.8 68.2548 17.24 66.7668 17.24C65.2788 17.24 64.1508 16.8 63.3828 15.92C62.6308 15.024 62.2548 13.912 62.2548 12.584V9.416C62.2548 7.896 62.6388 6.736 63.4068 5.936C64.1908 5.12 65.3108 4.712 66.7668 4.712C68.1588 4.712 69.2468 5.136 70.0308 5.984C70.8148 6.816 71.2068 7.96 71.2068 9.416V12.584ZM68.5908 9.416C68.5908 8.568 68.4148 8.016 68.0628 7.76C67.7108 7.504 67.2788 7.376 66.7668 7.376C65.5188 7.376 64.8948 8.056 64.8948 9.416V12.824C64.8948 13.464 65.0708 13.928 65.4228 14.216C65.7748 14.504 66.2228 14.648 66.7668 14.648C67.2948 14.648 67.7268 14.496 68.0628 14.192C68.4148 13.888 68.5908 13.432 68.5908 12.824V9.416ZM74.0204 8.696C74.0204 7.016 74.7004 5.864 76.0604 5.24C76.7164 4.92 77.4844 4.76 78.3644 4.76C79.1164 4.76 79.7484 4.856 80.2604 5.048V0.199999H82.8764V17L81.5564 17.12C80.5164 17.232 79.7004 17.288 79.1084 17.288C78.5164 17.288 77.9564 17.232 77.4284 17.12C76.9164 17.008 76.4044 16.824 75.8924 16.568C75.3164 16.28 74.8604 15.856 74.5244 15.296C74.1884 14.736 74.0204 14.048 74.0204 13.232V8.696ZM80.2604 7.832C79.6844 7.56 79.1484 7.424 78.6524 7.424C78.0764 7.424 77.5964 7.608 77.2124 7.976C76.8284 8.344 76.6364 8.904 76.6364 9.656V13.4C76.6364 13.816 76.8604 14.16 77.3084 14.432C77.7564 14.704 78.3244 14.84 79.0124 14.84C79.4444 14.84 79.8604 14.784 80.2604 14.672V7.832ZM92.4123 16.856C91.4203 17.112 90.4603 17.24 89.5323 17.24C88.6683 17.24 87.9483 17.144 87.3723 16.952C86.4283 16.632 85.7403 16.144 85.3083 15.488C84.8923 14.816 84.6843 13.88 84.6843 12.68V9.608C84.6843 8.024 85.1003 6.824 85.9323 6.008C86.7643 5.176 87.8363 4.76 89.1483 4.76C90.1883 4.76 91.2603 5.016 92.3643 5.528L91.6443 7.808C90.8763 7.504 90.1883 7.352 89.5803 7.352C88.8603 7.352 88.3003 7.552 87.9003 7.952C87.5163 8.352 87.3243 8.856 87.3243 9.464V12.944C87.3243 13.552 87.5403 13.984 87.9723 14.24C88.4043 14.496 88.9563 14.624 89.6283 14.624C90.0123 14.624 90.3963 14.584 90.7803 14.504C91.1643 14.424 91.4683 14.344 91.6923 14.264L92.4123 16.856ZM103.136 17C101.408 17.176 100.16 17.264 99.3918 17.264C97.7118 17.264 96.3758 16.952 95.3838 16.328C94.3918 15.704 93.8958 14.576 93.8958 12.944V10.952C93.8958 9.368 94.4478 8.304 95.5518 7.76C96.0798 7.504 96.6798 7.376 97.3518 7.376C97.9438 7.376 98.5278 7.456 99.1038 7.616C99.6798 7.776 100.144 7.952 100.496 8.144C100.496 7.552 100.256 7.152 99.7758 6.944C99.2958 6.72 98.6798 6.608 97.9278 6.608L98.1438 4.784C99.6798 4.784 100.808 5.032 101.528 5.528C102.264 6.008 102.712 6.584 102.872 7.256C103.048 7.928 103.136 8.792 103.136 9.848V17ZM100.496 10.952C100.208 10.744 99.7998 10.552 99.2718 10.376C98.7598 10.184 98.2878 10.088 97.8558 10.088C97.4718 10.088 97.1598 10.184 96.9198 10.376C96.6798 10.568 96.5598 10.872 96.5598 11.288V12.608C96.5598 14.064 97.4158 14.792 99.1278 14.792C99.6238 14.792 100.08 14.752 100.496 14.672V10.952ZM107.504 13.688C107.504 13.976 107.648 14.248 107.936 14.504C108.24 14.76 108.696 14.888 109.304 14.888C109.832 14.888 110.24 14.76 110.528 14.504C110.816 14.232 110.96 13.92 110.96 13.568C110.96 13.072 110.776 12.704 110.408 12.464C110.056 12.224 109.48 11.96 108.68 11.672C107.992 11.448 107.424 11.224 106.976 11C106.528 10.776 106.128 10.44 105.776 9.992C105.424 9.544 105.216 8.96 105.152 8.24C105.104 7.696 105.208 7.152 105.464 6.608C105.736 6.048 106.184 5.592 106.808 5.24C107.448 4.872 108.264 4.688 109.256 4.688C109.768 4.688 110.216 4.744 110.6 4.856C111 4.952 111.312 5.056 111.536 5.168C111.76 5.28 111.896 5.352 111.944 5.384L111.176 7.832C111.144 7.8 111.056 7.744 110.912 7.664C110.784 7.568 110.576 7.48 110.288 7.4C110 7.32 109.656 7.28 109.256 7.28C108.392 7.28 107.96 7.52 107.96 8C107.96 8.096 107.976 8.192 108.008 8.288C108.056 8.512 108.224 8.704 108.512 8.864C108.8 9.008 109.224 9.184 109.784 9.392C110.568 9.68 111.224 9.968 111.752 10.256C112.296 10.528 112.76 10.944 113.144 11.504C113.544 12.048 113.744 12.752 113.744 13.616C113.744 14.272 113.584 14.888 113.264 15.464C112.944 16.024 112.448 16.48 111.776 16.832C111.12 17.184 110.296 17.36 109.304 17.36C108.392 17.36 107.6 17.208 106.928 16.904C106.272 16.584 105.768 16.168 105.416 15.656C105.08 15.144 104.896 14.576 104.864 13.952L107.504 13.688ZM119.04 17.312C116.608 17.264 115.392 16.104 115.392 13.832V0.199999H118.08V4.976H120.36L119.784 7.448H118.08V13.832C118.08 14.376 118.232 14.744 118.536 14.936C118.84 15.112 119.272 15.2 119.832 15.2L119.04 17.312ZM122.386 4.976H124.834L125.026 5.072C125.682 4.848 126.298 4.736 126.874 4.736C127.274 4.736 127.858 4.816 128.626 4.976L129.106 5.072L128.482 7.64C128.034 7.416 127.594 7.304 127.162 7.304C126.57 7.304 126.066 7.488 125.65 7.856C125.234 8.208 125.026 8.68 125.026 9.272V17H122.386V4.976ZM132.487 15.8C132.487 16.12 132.367 16.4 132.127 16.64C131.887 16.88 131.599 17 131.263 17C130.943 17 130.663 16.88 130.423 16.64C130.183 16.4 130.063 16.12 130.063 15.8C130.063 15.464 130.183 15.176 130.423 14.936C130.663 14.696 130.943 14.576 131.263 14.576C131.599 14.576 131.887 14.696 132.127 14.936C132.367 15.176 132.487 15.464 132.487 15.8Z" fill="#E12929"/>
</svg>
