<svg width="164" height="44" viewBox="0 0 164 44" fill="none" xmlns="http://www.w3.org/2000/svg">
<rect x="0.000488281" width="164" height="44" rx="10" fill="white"/>
<g clip-path="url(#clip0_1_276)">
<path d="M10.6232 24.3539C10.5085 24.3539 10.4173 24.4431 10.4026 24.5703L10.0005 27.6398L10.4026 30.6564C10.4173 30.7836 10.5085 30.8721 10.6232 30.8721C10.7342 30.8721 10.8248 30.7841 10.8426 30.6576V30.6569V30.6576L11.3195 27.6396L10.8426 24.5695C10.8255 24.4433 10.7336 24.3541 10.6232 24.3541V24.3539ZM12.8848 22.6767C12.8659 22.5449 12.772 22.4539 12.656 22.4539C12.5395 22.4539 12.443 22.5479 12.4271 22.6767C12.4271 22.6779 11.8866 27.6396 11.8866 27.6396L12.4271 32.4928C12.4425 32.6229 12.5388 32.7168 12.656 32.7168C12.7713 32.7168 12.8654 32.6253 12.8842 32.494L13.4995 27.6398L12.885 22.6769L12.8848 22.6767ZM21.4048 18.0987C21.183 18.0987 20.9997 18.2811 20.989 18.5128L20.5585 27.6439L20.989 33.5447C21.0002 33.7755 21.183 33.9572 21.4048 33.9572C21.6254 33.9572 21.808 33.7748 21.8212 33.5434V33.5452L22.3081 27.6438L21.8212 18.5127C21.808 18.2812 21.6254 18.0987 21.4048 18.0987ZM16.9952 21.2723C16.8249 21.2723 16.6858 21.4091 16.6722 21.5915L16.1872 27.6416L16.6722 33.495C16.6851 33.6762 16.8249 33.8131 16.9952 33.8131C17.1638 33.8131 17.3029 33.6763 17.3176 33.495L17.8688 27.6416L17.3176 21.5903C17.3029 21.4091 17.1638 21.2722 16.9952 21.2722V21.2723ZM25.886 33.9567C26.1609 33.9567 26.3845 33.7339 26.3958 33.4486L26.8181 27.6469L26.3962 15.4906C26.385 15.2053 26.1615 14.9825 25.8862 14.9825C25.6088 14.9825 25.3846 15.2059 25.3758 15.4912C25.3758 15.4919 25.0013 27.6466 25.0013 27.6466L25.3758 33.4505C25.3847 33.7334 25.6088 33.9569 25.8858 33.9569L25.886 33.9567ZM35.06 33.984C35.4385 33.984 35.7508 33.6709 35.7579 33.2856V33.2899V33.2856L36.0526 27.6504L35.7579 13.6106C35.7515 13.226 35.4385 12.9121 35.06 12.9121C34.6808 12.9121 34.3678 13.2253 34.362 13.6112L34.0989 27.6458C34.0989 27.6547 34.362 33.2892 34.362 33.2892C34.3678 33.6707 34.6813 33.984 35.06 33.984ZM30.438 33.962C30.7675 33.962 31.0332 33.6962 31.0417 33.3575V33.3619L31.4001 27.6482L31.0414 15.4035C31.0325 15.0648 30.7669 14.7998 30.4377 14.7998C30.1059 14.7998 29.8404 15.0648 29.8331 15.4035L29.5143 27.6487L29.8338 33.3614C29.8407 33.6964 30.1064 33.9622 30.4382 33.9622L30.438 33.962ZM19.1913 33.9086C19.3872 33.9086 19.5457 33.7511 19.5604 33.5436L20.0797 27.6414L19.5604 22.0271C19.546 21.8199 19.3875 21.6636 19.1913 21.6636C18.9926 21.6636 18.8341 21.8211 18.8215 22.0296L18.3643 27.6418L18.8215 33.5432C18.8347 33.7513 18.9926 33.9086 19.1913 33.9086ZM14.8167 33.5852C14.9597 33.5852 15.0757 33.4718 15.0924 33.3148L15.6757 27.6405L15.093 21.7521C15.0759 21.5946 14.96 21.4811 14.8167 21.4811C14.6718 21.4811 14.5558 21.5951 14.5411 21.7521C14.5411 21.7528 14.0276 27.6405 14.0276 27.6405L14.5411 33.3138C14.5551 33.4713 14.6713 33.5853 14.8167 33.5853V33.5852ZM32.7401 15.1998C32.3822 15.1998 32.0954 15.4856 32.0882 15.8517L31.7971 27.6491L32.0882 33.3259C32.0953 33.6873 32.3815 33.9731 32.7401 33.9731C33.0973 33.9731 33.3824 33.6878 33.3907 33.3217V33.3264L33.7174 27.6496L33.3907 15.8505C33.3824 15.4858 33.0973 15.1998 32.7401 15.1998ZM23.6369 33.9686C23.8841 33.9686 24.0882 33.766 24.1 33.5076L24.5543 27.6459L24.1 16.4266C24.0875 16.1675 23.8841 15.9656 23.6369 15.9656C23.3872 15.9656 23.1838 16.1681 23.1732 16.4266C23.1732 16.4273 22.7711 27.6459 22.7711 27.6459L23.1741 33.5099C23.1841 33.7662 23.3876 33.9688 23.637 33.9688L23.6369 33.9686ZM28.7096 33.4154V33.4124L29.1 27.6476L28.7096 15.0816C28.7002 14.7696 28.4552 14.5247 28.1529 14.5247C27.8488 14.5247 27.6041 14.7689 27.5959 15.0816L27.2494 27.6471L27.5965 33.4149C27.6048 33.7239 27.8497 33.9681 28.1533 33.9681C28.4562 33.9681 28.6999 33.7239 28.71 33.4131L28.7098 33.4152L28.7096 33.4154ZM58.2358 20.4041C57.309 20.4041 56.4245 20.5926 55.6191 20.932C55.0807 14.8059 49.9679 10.0001 43.7312 10.0001C42.2053 10.0001 40.7175 10.302 39.4039 10.8126C38.8936 11.0112 38.7573 11.2157 38.7527 11.612V33.1855C38.7581 33.6014 39.0794 33.9481 39.4833 33.9888C39.5004 33.9907 58.1147 34.0001 58.2353 34.0001C61.9711 34.0001 65.0002 30.9566 65.0002 27.2024C65.0002 23.4483 61.9716 20.4041 58.2358 20.4041ZM37.3698 11.593C36.9634 11.593 36.6298 11.9282 36.624 12.3402L36.3188 27.6526L36.6247 33.2098C36.6301 33.6157 36.9636 33.9504 37.37 33.9504C37.775 33.9504 38.1088 33.6157 38.1146 33.204V33.2105L38.4464 27.6526L38.1145 12.339C38.1083 11.9284 37.7749 11.593 37.3698 11.593Z" fill="url(#paint0_linear_1_276)"/>
</g>
<path d="M80.0005 19.398C79.9072 19.2953 79.7718 19.188 79.5945 19.076C79.4172 18.9547 79.2072 18.8427 78.9645 18.74C78.7312 18.6373 78.4698 18.5533 78.1805 18.488C77.9005 18.4227 77.6112 18.39 77.3125 18.39C76.6498 18.39 76.1598 18.5113 75.8425 18.754C75.5345 18.9967 75.3805 19.3327 75.3805 19.762C75.3805 20.0047 75.4272 20.2053 75.5205 20.364C75.6232 20.5133 75.7772 20.6487 75.9825 20.77C76.1878 20.882 76.4445 20.9847 76.7525 21.078C77.0605 21.162 77.4198 21.2553 77.8305 21.358C78.3345 21.4793 78.7872 21.6147 79.1885 21.764C79.5992 21.9133 79.9445 22.0953 80.2245 22.31C80.5045 22.5247 80.7192 22.7907 80.8685 23.108C81.0272 23.416 81.1065 23.794 81.1065 24.242C81.1065 24.746 81.0085 25.18 80.8125 25.544C80.6258 25.908 80.3645 26.2067 80.0285 26.44C79.7018 26.664 79.3192 26.832 78.8805 26.944C78.4418 27.0467 77.9705 27.098 77.4665 27.098C76.7105 27.098 75.9778 26.986 75.2685 26.762C74.5685 26.5287 73.9338 26.1927 73.3645 25.754L74.0785 24.41C74.1998 24.5313 74.3725 24.6667 74.5965 24.816C74.8298 24.9653 75.0958 25.1053 75.3945 25.236C75.7025 25.3573 76.0338 25.4647 76.3885 25.558C76.7432 25.642 77.1118 25.684 77.4945 25.684C78.1105 25.684 78.5865 25.5767 78.9225 25.362C79.2585 25.1473 79.4265 24.83 79.4265 24.41C79.4265 24.158 79.3612 23.948 79.2305 23.78C79.1092 23.612 78.9318 23.4673 78.6985 23.346C78.4652 23.2153 78.1805 23.0987 77.8445 22.996C77.5085 22.8933 77.1258 22.786 76.6965 22.674C76.2018 22.5433 75.7678 22.408 75.3945 22.268C75.0305 22.1187 74.7272 21.9413 74.4845 21.736C74.2418 21.5307 74.0552 21.2927 73.9245 21.022C73.8032 20.742 73.7425 20.406 73.7425 20.014C73.7425 19.5287 73.8358 19.0993 74.0225 18.726C74.2092 18.3433 74.4612 18.026 74.7785 17.774C75.1052 17.5127 75.4878 17.3167 75.9265 17.186C76.3652 17.0553 76.8412 16.99 77.3545 16.99C78.0265 16.99 78.6472 17.0973 79.2165 17.312C79.7858 17.5267 80.2852 17.7927 80.7145 18.11L80.0005 19.398ZM85.7731 27.14C85.1944 27.14 84.6717 27.0373 84.2051 26.832C83.7477 26.6267 83.3557 26.3513 83.0291 26.006C82.7024 25.6607 82.4504 25.2593 82.2731 24.802C82.0957 24.3353 82.0071 23.85 82.0071 23.346C82.0071 22.842 82.0957 22.3613 82.2731 21.904C82.4504 21.4373 82.7024 21.0313 83.0291 20.686C83.3651 20.3407 83.7617 20.0653 84.2191 19.86C84.6857 19.6547 85.2037 19.552 85.7731 19.552C86.3424 19.552 86.8557 19.6547 87.3131 19.86C87.7797 20.0653 88.1764 20.3407 88.5031 20.686C88.8391 21.0313 89.0957 21.4373 89.2731 21.904C89.4504 22.3613 89.5391 22.842 89.5391 23.346C89.5391 23.85 89.4504 24.3353 89.2731 24.802C89.0957 25.2593 88.8391 25.6607 88.5031 26.006C88.1764 26.3513 87.7797 26.6267 87.3131 26.832C86.8557 27.0373 86.3424 27.14 85.7731 27.14ZM83.5891 23.36C83.5891 23.7147 83.6451 24.0413 83.7571 24.34C83.8691 24.6387 84.0231 24.9 84.2191 25.124C84.4151 25.3387 84.6437 25.5113 84.9051 25.642C85.1757 25.7633 85.4651 25.824 85.7731 25.824C86.0811 25.824 86.3657 25.7633 86.6271 25.642C86.8977 25.5113 87.1311 25.334 87.3271 25.11C87.5231 24.886 87.6771 24.6247 87.7891 24.326C87.9011 24.0273 87.9571 23.7007 87.9571 23.346C87.9571 23.0007 87.9011 22.6787 87.7891 22.38C87.6771 22.072 87.5231 21.806 87.3271 21.582C87.1311 21.358 86.8977 21.1853 86.6271 21.064C86.3657 20.9333 86.0811 20.868 85.7731 20.868C85.4744 20.868 85.1897 20.9333 84.9191 21.064C84.6577 21.1947 84.4291 21.372 84.2331 21.596C84.0371 21.82 83.8784 22.086 83.7571 22.394C83.6451 22.6927 83.5891 23.0147 83.5891 23.36ZM93.159 27.14C92.3936 27.14 91.815 26.8927 91.423 26.398C91.031 25.894 90.835 25.1473 90.835 24.158V19.678H92.375V23.85C92.375 25.166 92.8416 25.824 93.775 25.824C94.2136 25.824 94.629 25.6887 95.021 25.418C95.413 25.1473 95.7163 24.7553 95.931 24.242V19.678H97.471V25.18C97.471 25.3573 97.499 25.4833 97.555 25.558C97.6203 25.6327 97.7323 25.6747 97.891 25.684V27C97.7323 27.028 97.6016 27.0467 97.499 27.056C97.3963 27.0653 97.2983 27.07 97.205 27.07C96.925 27.07 96.687 26.9953 96.491 26.846C96.295 26.6873 96.1923 26.4867 96.183 26.244L96.155 25.516C95.8283 26.048 95.4036 26.454 94.881 26.734C94.3583 27.0047 93.7843 27.14 93.159 27.14ZM106.002 27H104.462V22.898C104.462 22.2073 104.35 21.708 104.126 21.4C103.912 21.0827 103.59 20.924 103.16 20.924C102.936 20.924 102.712 20.966 102.488 21.05C102.264 21.134 102.054 21.2553 101.858 21.414C101.662 21.5633 101.485 21.7453 101.326 21.96C101.177 22.1653 101.06 22.394 100.976 22.646V27H99.4362V19.678H100.836V21.148C101.116 20.6533 101.522 20.266 102.054 19.986C102.586 19.6967 103.174 19.552 103.818 19.552C104.257 19.552 104.616 19.6313 104.896 19.79C105.176 19.9487 105.396 20.168 105.554 20.448C105.722 20.7187 105.839 21.036 105.904 21.4C105.97 21.7547 106.002 22.1327 106.002 22.534V27ZM110.772 27.14C110.277 27.14 109.82 27.042 109.4 26.846C108.98 26.6407 108.616 26.3653 108.308 26.02C108 25.6747 107.757 25.2733 107.58 24.816C107.412 24.3493 107.328 23.85 107.328 23.318C107.328 22.8047 107.407 22.324 107.566 21.876C107.734 21.4187 107.962 21.0173 108.252 20.672C108.55 20.3267 108.896 20.056 109.288 19.86C109.689 19.6547 110.128 19.552 110.604 19.552C111.192 19.552 111.71 19.6967 112.158 19.986C112.606 20.266 112.956 20.6253 113.208 21.064V16.78H114.748V25.18C114.748 25.3573 114.776 25.4833 114.832 25.558C114.897 25.6327 115.009 25.6747 115.168 25.684V27C115.009 27.028 114.878 27.0467 114.776 27.056C114.682 27.0653 114.603 27.07 114.538 27.07C114.23 27.07 113.978 26.9907 113.782 26.832C113.586 26.6733 113.478 26.468 113.46 26.216L113.432 25.67C113.161 26.1273 112.792 26.4867 112.326 26.748C111.859 27.0093 111.341 27.14 110.772 27.14ZM111.15 25.824C111.374 25.824 111.598 25.7867 111.822 25.712C112.046 25.6373 112.251 25.5347 112.438 25.404C112.624 25.2733 112.783 25.1193 112.914 24.942C113.054 24.7647 113.152 24.5733 113.208 24.368V22.45C113.124 22.2167 113.002 22.002 112.844 21.806C112.694 21.61 112.522 21.442 112.326 21.302C112.13 21.162 111.92 21.0547 111.696 20.98C111.481 20.9053 111.262 20.868 111.038 20.868C110.73 20.868 110.445 20.938 110.184 21.078C109.932 21.218 109.712 21.4047 109.526 21.638C109.339 21.8713 109.19 22.1373 109.078 22.436C108.975 22.7347 108.924 23.0427 108.924 23.36C108.924 23.696 108.98 24.0133 109.092 24.312C109.213 24.6107 109.376 24.872 109.582 25.096C109.787 25.32 110.02 25.4973 110.282 25.628C110.552 25.7587 110.842 25.824 111.15 25.824ZM116.228 23.332C116.228 22.8187 116.316 22.3333 116.494 21.876C116.671 21.4187 116.923 21.0173 117.25 20.672C117.586 20.3267 117.987 20.056 118.454 19.86C118.92 19.6547 119.443 19.552 120.022 19.552C120.778 19.552 121.426 19.72 121.968 20.056C122.518 20.3827 122.929 20.8213 123.2 21.372L121.702 21.848C121.524 21.54 121.286 21.302 120.988 21.134C120.689 20.9567 120.358 20.868 119.994 20.868C119.686 20.868 119.396 20.9287 119.126 21.05C118.864 21.1713 118.636 21.344 118.44 21.568C118.244 21.7827 118.09 22.0393 117.978 22.338C117.866 22.6367 117.81 22.968 117.81 23.332C117.81 23.6867 117.866 24.018 117.978 24.326C118.099 24.6247 118.258 24.886 118.454 25.11C118.659 25.334 118.892 25.5113 119.154 25.642C119.424 25.7633 119.709 25.824 120.008 25.824C120.194 25.824 120.381 25.8007 120.568 25.754C120.754 25.698 120.922 25.6233 121.072 25.53C121.23 25.4367 121.366 25.3293 121.478 25.208C121.599 25.0867 121.688 24.956 121.744 24.816L123.256 25.264C123.013 25.8147 122.607 26.2673 122.038 26.622C121.468 26.9673 120.796 27.14 120.022 27.14C119.452 27.14 118.934 27.0373 118.468 26.832C118.001 26.6267 117.6 26.3513 117.264 26.006C116.937 25.6513 116.68 25.2453 116.494 24.788C116.316 24.3307 116.228 23.8453 116.228 23.332ZM124.538 16.78H126.078V24.886C126.078 25.1567 126.148 25.3713 126.288 25.53C126.428 25.6793 126.624 25.754 126.876 25.754C126.979 25.754 127.095 25.7353 127.226 25.698C127.366 25.6607 127.497 25.6187 127.618 25.572L127.842 26.776C127.618 26.8787 127.352 26.958 127.044 27.014C126.736 27.0793 126.461 27.112 126.218 27.112C125.686 27.112 125.271 26.9673 124.972 26.678C124.683 26.3887 124.538 25.978 124.538 25.446V16.78ZM132.025 27.14C131.446 27.14 130.924 27.0373 130.457 26.832C130 26.6267 129.608 26.3513 129.281 26.006C128.954 25.6607 128.702 25.2593 128.525 24.802C128.348 24.3353 128.259 23.85 128.259 23.346C128.259 22.842 128.348 22.3613 128.525 21.904C128.702 21.4373 128.954 21.0313 129.281 20.686C129.617 20.3407 130.014 20.0653 130.471 19.86C130.938 19.6547 131.456 19.552 132.025 19.552C132.594 19.552 133.108 19.6547 133.565 19.86C134.032 20.0653 134.428 20.3407 134.755 20.686C135.091 21.0313 135.348 21.4373 135.525 21.904C135.702 22.3613 135.791 22.842 135.791 23.346C135.791 23.85 135.702 24.3353 135.525 24.802C135.348 25.2593 135.091 25.6607 134.755 26.006C134.428 26.3513 134.032 26.6267 133.565 26.832C133.108 27.0373 132.594 27.14 132.025 27.14ZM129.841 23.36C129.841 23.7147 129.897 24.0413 130.009 24.34C130.121 24.6387 130.275 24.9 130.471 25.124C130.667 25.3387 130.896 25.5113 131.157 25.642C131.428 25.7633 131.717 25.824 132.025 25.824C132.333 25.824 132.618 25.7633 132.879 25.642C133.15 25.5113 133.383 25.334 133.579 25.11C133.775 24.886 133.929 24.6247 134.041 24.326C134.153 24.0273 134.209 23.7007 134.209 23.346C134.209 23.0007 134.153 22.6787 134.041 22.38C133.929 22.072 133.775 21.806 133.579 21.582C133.383 21.358 133.15 21.1853 132.879 21.064C132.618 20.9333 132.333 20.868 132.025 20.868C131.726 20.868 131.442 20.9333 131.171 21.064C130.91 21.1947 130.681 21.372 130.485 21.596C130.289 21.82 130.13 22.086 130.009 22.394C129.897 22.6927 129.841 23.0147 129.841 23.36ZM139.411 27.14C138.646 27.14 138.067 26.8927 137.675 26.398C137.283 25.894 137.087 25.1473 137.087 24.158V19.678H138.627V23.85C138.627 25.166 139.094 25.824 140.027 25.824C140.466 25.824 140.881 25.6887 141.273 25.418C141.665 25.1473 141.968 24.7553 142.183 24.242V19.678H143.723V25.18C143.723 25.3573 143.751 25.4833 143.807 25.558C143.872 25.6327 143.984 25.6747 144.143 25.684V27C143.984 27.028 143.854 27.0467 143.751 27.056C143.648 27.0653 143.55 27.07 143.457 27.07C143.177 27.07 142.939 26.9953 142.743 26.846C142.547 26.6873 142.444 26.4867 142.435 26.244L142.407 25.516C142.08 26.048 141.656 26.454 141.133 26.734C140.61 27.0047 140.036 27.14 139.411 27.14ZM148.67 27.14C148.175 27.14 147.718 27.042 147.298 26.846C146.878 26.6407 146.514 26.3653 146.206 26.02C145.898 25.6747 145.655 25.2733 145.478 24.816C145.31 24.3493 145.226 23.85 145.226 23.318C145.226 22.8047 145.305 22.324 145.464 21.876C145.632 21.4187 145.861 21.0173 146.15 20.672C146.449 20.3267 146.794 20.056 147.186 19.86C147.587 19.6547 148.026 19.552 148.502 19.552C149.09 19.552 149.608 19.6967 150.056 19.986C150.504 20.266 150.854 20.6253 151.106 21.064V16.78H152.646V25.18C152.646 25.3573 152.674 25.4833 152.73 25.558C152.795 25.6327 152.907 25.6747 153.066 25.684V27C152.907 27.028 152.777 27.0467 152.674 27.056C152.581 27.0653 152.501 27.07 152.436 27.07C152.128 27.07 151.876 26.9907 151.68 26.832C151.484 26.6733 151.377 26.468 151.358 26.216L151.33 25.67C151.059 26.1273 150.691 26.4867 150.224 26.748C149.757 27.0093 149.239 27.14 148.67 27.14ZM149.048 25.824C149.272 25.824 149.496 25.7867 149.72 25.712C149.944 25.6373 150.149 25.5347 150.336 25.404C150.523 25.2733 150.681 25.1193 150.812 24.942C150.952 24.7647 151.05 24.5733 151.106 24.368V22.45C151.022 22.2167 150.901 22.002 150.742 21.806C150.593 21.61 150.42 21.442 150.224 21.302C150.028 21.162 149.818 21.0547 149.594 20.98C149.379 20.9053 149.16 20.868 148.936 20.868C148.628 20.868 148.343 20.938 148.082 21.078C147.83 21.218 147.611 21.4047 147.424 21.638C147.237 21.8713 147.088 22.1373 146.976 22.436C146.873 22.7347 146.822 23.0427 146.822 23.36C146.822 23.696 146.878 24.0133 146.99 24.312C147.111 24.6107 147.275 24.872 147.48 25.096C147.685 25.32 147.919 25.4973 148.18 25.628C148.451 25.7587 148.74 25.824 149.048 25.824Z" fill="#18273A" fill-opacity="0.94"/>
<defs>
<linearGradient id="paint0_linear_1_276" x1="37.2089" y1="10.0003" x2="37.2089" y2="33.997" gradientUnits="userSpaceOnUse">
<stop stop-color="#F79810"/>
<stop offset="1" stop-color="#F8310E"/>
</linearGradient>
<clipPath id="clip0_1_276">
<rect width="55" height="24" fill="white" transform="translate(10.0005 10)"/>
</clipPath>
</defs>
</svg>
