<svg width="99" height="44" viewBox="0 0 99 44" fill="none" xmlns="http://www.w3.org/2000/svg">
<rect width="99.0006" height="44" rx="10" fill="white"/>
<circle cx="22" cy="22" r="11" fill="white"/>
<path d="M22.0002 10C15.3728 10 10 15.3727 10 22.0001C10 28.6278 15.3728 34 22.0002 34C28.6283 34 34.0006 28.6278 34.0006 22.0001C34.0006 15.3731 28.6285 10 22.0002 10ZM27.5034 27.3075C27.2885 27.6601 26.8271 27.7718 26.4746 27.5555C23.657 25.8344 20.1101 25.4447 15.933 26.399C15.5304 26.4907 15.1292 26.2385 15.0375 25.8359C14.9454 25.4332 15.1966 25.032 15.6001 24.9403C20.1713 23.8955 24.0924 24.3456 27.2555 26.2787C27.608 26.495 27.7198 26.955 27.5034 27.3075ZM28.9722 24.0396C28.7014 24.4803 28.1254 24.6193 27.6854 24.3484C24.4598 22.3653 19.5428 21.7911 15.7275 22.9493C15.2327 23.0987 14.7101 22.8199 14.5599 22.3259C14.4109 21.8311 14.6899 21.3095 15.1838 21.1591C19.5419 19.8367 24.9599 20.4772 28.6642 22.7535C29.1041 23.0244 29.2431 23.6003 28.9722 24.0396ZM29.0983 20.6372C25.2307 18.34 18.8497 18.1287 15.157 19.2495C14.564 19.4293 13.937 19.0946 13.7573 18.5016C13.5776 17.9083 13.912 17.2817 14.5054 17.1014C18.7443 15.8146 25.791 16.0632 30.2439 18.7067C30.7784 19.0232 30.9532 19.712 30.6365 20.2447C30.3213 20.778 29.63 20.9539 29.0983 20.6372Z" fill="#1ED760"/>
<path d="M49.0005 19.398C48.9072 19.2953 48.7718 19.188 48.5945 19.076C48.4172 18.9547 48.2072 18.8427 47.9645 18.74C47.7312 18.6373 47.4698 18.5533 47.1805 18.488C46.9005 18.4227 46.6112 18.39 46.3125 18.39C45.6498 18.39 45.1598 18.5113 44.8425 18.754C44.5345 18.9967 44.3805 19.3327 44.3805 19.762C44.3805 20.0047 44.4272 20.2053 44.5205 20.364C44.6232 20.5133 44.7772 20.6487 44.9825 20.77C45.1878 20.882 45.4445 20.9847 45.7525 21.078C46.0605 21.162 46.4198 21.2553 46.8305 21.358C47.3345 21.4793 47.7872 21.6147 48.1885 21.764C48.5992 21.9133 48.9445 22.0953 49.2245 22.31C49.5045 22.5247 49.7192 22.7907 49.8685 23.108C50.0272 23.416 50.1065 23.794 50.1065 24.242C50.1065 24.746 50.0085 25.18 49.8125 25.544C49.6258 25.908 49.3645 26.2067 49.0285 26.44C48.7018 26.664 48.3192 26.832 47.8805 26.944C47.4418 27.0467 46.9705 27.098 46.4665 27.098C45.7105 27.098 44.9778 26.986 44.2685 26.762C43.5685 26.5287 42.9338 26.1927 42.3645 25.754L43.0785 24.41C43.1998 24.5313 43.3725 24.6667 43.5965 24.816C43.8298 24.9653 44.0958 25.1053 44.3945 25.236C44.7025 25.3573 45.0338 25.4647 45.3885 25.558C45.7432 25.642 46.1118 25.684 46.4945 25.684C47.1105 25.684 47.5865 25.5767 47.9225 25.362C48.2585 25.1473 48.4265 24.83 48.4265 24.41C48.4265 24.158 48.3612 23.948 48.2305 23.78C48.1092 23.612 47.9318 23.4673 47.6985 23.346C47.4652 23.2153 47.1805 23.0987 46.8445 22.996C46.5085 22.8933 46.1258 22.786 45.6965 22.674C45.2018 22.5433 44.7678 22.408 44.3945 22.268C44.0305 22.1187 43.7272 21.9413 43.4845 21.736C43.2418 21.5307 43.0552 21.2927 42.9245 21.022C42.8032 20.742 42.7425 20.406 42.7425 20.014C42.7425 19.5287 42.8358 19.0993 43.0225 18.726C43.2092 18.3433 43.4612 18.026 43.7785 17.774C44.1052 17.5127 44.4878 17.3167 44.9265 17.186C45.3652 17.0553 45.8412 16.99 46.3545 16.99C47.0265 16.99 47.6472 17.0973 48.2165 17.312C48.7858 17.5267 49.2852 17.7927 49.7145 18.11L49.0005 19.398ZM55.6411 27.14C55.0531 27.14 54.5351 27 54.0871 26.72C53.6391 26.44 53.2844 26.076 53.0231 25.628V29.982H51.4831V19.678H52.8411V20.994C53.1211 20.5553 53.4804 20.2053 53.9191 19.944C54.3671 19.6827 54.8711 19.552 55.4311 19.552C55.9351 19.552 56.3971 19.6547 56.8171 19.86C57.2371 20.0653 57.6011 20.3407 57.9091 20.686C58.2171 21.0313 58.4551 21.4327 58.6231 21.89C58.8004 22.3473 58.8891 22.828 58.8891 23.332C58.8891 23.864 58.8097 24.3633 58.6511 24.83C58.4924 25.2873 58.2684 25.6887 57.9791 26.034C57.6897 26.37 57.3444 26.6407 56.9431 26.846C56.5511 27.042 56.1171 27.14 55.6411 27.14ZM55.1371 25.824C55.4637 25.824 55.7577 25.754 56.0191 25.614C56.2897 25.474 56.5184 25.2873 56.7051 25.054C56.9011 24.8207 57.0504 24.5547 57.1531 24.256C57.2557 23.9573 57.3071 23.6493 57.3071 23.332C57.3071 22.996 57.2464 22.6787 57.1251 22.38C57.0131 22.0813 56.8544 21.82 56.6491 21.596C56.4531 21.372 56.2151 21.1947 55.9351 21.064C55.6551 20.9333 55.3517 20.868 55.0251 20.868C54.8291 20.868 54.6237 20.9053 54.4091 20.98C54.1944 21.0547 53.9937 21.1573 53.8071 21.288C53.6204 21.4187 53.4571 21.5727 53.3171 21.75C53.1771 21.918 53.0791 22.1047 53.0231 22.31V24.228C53.1164 24.452 53.2377 24.662 53.3871 24.858C53.5364 25.054 53.6997 25.222 53.8771 25.362C54.0637 25.502 54.2644 25.614 54.4791 25.698C54.6937 25.782 54.9131 25.824 55.1371 25.824ZM63.5641 27.14C62.9854 27.14 62.4628 27.0373 61.9961 26.832C61.5388 26.6267 61.1468 26.3513 60.8201 26.006C60.4934 25.6607 60.2414 25.2593 60.0641 24.802C59.8868 24.3353 59.7981 23.85 59.7981 23.346C59.7981 22.842 59.8868 22.3613 60.0641 21.904C60.2414 21.4373 60.4934 21.0313 60.8201 20.686C61.1561 20.3407 61.5528 20.0653 62.0101 19.86C62.4768 19.6547 62.9948 19.552 63.5641 19.552C64.1334 19.552 64.6468 19.6547 65.1041 19.86C65.5708 20.0653 65.9674 20.3407 66.2941 20.686C66.6301 21.0313 66.8868 21.4373 67.0641 21.904C67.2414 22.3613 67.3301 22.842 67.3301 23.346C67.3301 23.85 67.2414 24.3353 67.0641 24.802C66.8868 25.2593 66.6301 25.6607 66.2941 26.006C65.9674 26.3513 65.5708 26.6267 65.1041 26.832C64.6468 27.0373 64.1334 27.14 63.5641 27.14ZM61.3801 23.36C61.3801 23.7147 61.4361 24.0413 61.5481 24.34C61.6601 24.6387 61.8141 24.9 62.0101 25.124C62.2061 25.3387 62.4348 25.5113 62.6961 25.642C62.9668 25.7633 63.2561 25.824 63.5641 25.824C63.8721 25.824 64.1568 25.7633 64.4181 25.642C64.6888 25.5113 64.9221 25.334 65.1181 25.11C65.3141 24.886 65.4681 24.6247 65.5801 24.326C65.6921 24.0273 65.7481 23.7007 65.7481 23.346C65.7481 23.0007 65.6921 22.6787 65.5801 22.38C65.4681 22.072 65.3141 21.806 65.1181 21.582C64.9221 21.358 64.6888 21.1853 64.4181 21.064C64.1568 20.9333 63.8721 20.868 63.5641 20.868C63.2654 20.868 62.9808 20.9333 62.7101 21.064C62.4488 21.1947 62.2201 21.372 62.0241 21.596C61.8281 21.82 61.6694 22.086 61.5481 22.394C61.4361 22.6927 61.3801 23.0147 61.3801 23.36ZM72.6743 26.622C72.4783 26.7153 72.2076 26.8227 71.8623 26.944C71.5169 27.056 71.1483 27.112 70.7563 27.112C70.5136 27.112 70.2849 27.0793 70.0703 27.014C69.8556 26.9487 69.6643 26.8507 69.4963 26.72C69.3376 26.5893 69.2116 26.4213 69.1183 26.216C69.0249 26.0013 68.9783 25.7447 68.9783 25.446V20.868H68.0123V19.678H68.9783V17.27H70.5183V19.678H72.1143V20.868H70.5183V24.956C70.5369 25.2173 70.6163 25.4087 70.7563 25.53C70.9056 25.642 71.0876 25.698 71.3023 25.698C71.5169 25.698 71.7223 25.6607 71.9183 25.586C72.1143 25.5113 72.2589 25.4507 72.3523 25.404L72.6743 26.622ZM73.7409 27V19.678H75.2809V27H73.7409ZM73.7409 18.474V16.78H75.2809V18.474H73.7409ZM77.5515 27V21.05H76.5715V19.86H77.5515V19.566C77.5515 18.6607 77.7615 17.9467 78.1815 17.424C78.6015 16.9013 79.1709 16.64 79.8895 16.64C80.1882 16.64 80.4822 16.682 80.7715 16.766C81.0609 16.8407 81.3362 16.948 81.5975 17.088L81.2615 18.236C81.1215 18.152 80.9535 18.082 80.7575 18.026C80.5709 17.97 80.3889 17.942 80.2115 17.942C79.8475 17.942 79.5675 18.0773 79.3715 18.348C79.1849 18.6187 79.0915 19.0107 79.0915 19.524V19.86H80.9675V21.05H79.0915V27H77.5515ZM82.3738 28.722C82.5138 28.75 82.6491 28.7733 82.7798 28.792C82.9198 28.8107 83.0318 28.82 83.1158 28.82C83.2371 28.82 83.3398 28.792 83.4238 28.736C83.5171 28.6893 83.6104 28.6007 83.7038 28.47C83.7971 28.3393 83.8904 28.1527 83.9838 27.91C84.0864 27.6767 84.2031 27.3733 84.3338 27L81.3238 19.678H82.9058L85.1738 25.642L87.1898 19.678H88.6458L85.3278 28.694C85.1784 29.114 84.9171 29.464 84.5438 29.744C84.1798 30.0333 83.7084 30.178 83.1298 30.178C83.0178 30.178 82.9011 30.1687 82.7798 30.15C82.6584 30.1407 82.5231 30.1127 82.3738 30.066V28.722Z" fill="#18273A" fill-opacity="0.94"/>
</svg>
