<svg width="77" height="44" viewBox="0 0 77 44" fill="none" xmlns="http://www.w3.org/2000/svg">
<rect x="0.000488281" width="77" height="44" rx="10" fill="white"/>
<path d="M44.9072 10H55.3271V16.2514H44.9072V10ZM44.9072 28.3177H55.3271V31.7137H44.9072V28.3177Z" fill="#EB8A23"/>
<path d="M33.2905 13.1116H43.7104V16.2325H33.2905V13.1116ZM33.2905 28.3178H43.7104V34H33.2905V28.3178Z" fill="#FAC617"/>
<path d="M21.6743 11.3945H32.0942V16.2325H21.6743V11.3945ZM21.6743 28.3178H32.0942V31.7138H21.6743V28.3178Z" fill="#612368"/>
<path d="M10.01 14.5438H20.4773V16.2324H10.0005V14.5438H10.01ZM10.01 28.3177H20.4773V33.0418H10.0005V28.3177H10.01Z" fill="#3792C4"/>
<path d="M56.5234 13.7375H67.0003V16.2324H56.5234V13.7375ZM56.5234 28.3177H67.0003V30.1675H56.5234V28.3177Z" fill="#C33727"/>
<path d="M39.5693 26.3352C36.8242 26.3352 35.3234 24.8743 35.3234 22.2277C35.3234 19.7613 36.9572 18.2245 39.5693 18.2245C42.2763 18.2245 42.8177 19.7613 42.8367 19.8277L42.8652 19.8941L41.184 20.9281L41.146 20.8522C41.146 20.8427 40.6426 20.0554 39.5788 20.0554C38.2015 20.0554 37.5271 20.7763 37.5271 22.2467C37.5271 23.7075 38.249 24.5138 39.5788 24.5423H39.6073C40.5666 24.5423 41.1555 23.7455 41.1555 23.7265L41.1935 23.6601L42.8652 24.6751L42.8367 24.7415C42.8177 24.7889 42.2003 26.3352 39.5693 26.3352ZM52.1737 26.2593V18.2815H58.4522V20.0269H54.3299V21.4593H56.828V23.1004H54.3299V24.5423H58.4522V26.2783H52.1737V26.2593ZM48.9158 26.2593V23.1858H45.8573V26.2593H43.7011V18.2815H45.8573V21.4688H48.9158V18.2815H51.0719V26.2593H48.9158ZM30.6597 26.2593V20.0648H28.3231V18.2815H35.1715V20.0648H32.8158V26.2593H30.6597ZM25.0366 26.2593V18.2815H27.1927V26.2593H25.0366ZM65.2627 23.4988C66.184 23.015 66.6399 22.1708 66.6399 21.0324C66.6399 19.2585 65.4526 18.2909 63.306 18.2909H59.5636V26.2688H61.7292V23.9352H63.1445L64.4458 26.2688H66.9819L65.2627 23.4988ZM63.3155 22.1992H61.7292V20.0174H63.3155C64.1703 20.0174 64.5883 20.3684 64.5883 21.1083C64.5883 21.8482 64.1703 22.1992 63.3155 22.1992ZM13.078 26.3352C11.2353 26.3352 10.105 25.5099 10.0575 25.4719L10.0005 25.434L10.6274 23.4893L10.7224 23.5842C10.7319 23.5937 11.7102 24.5044 13.192 24.5044C14.2463 24.5044 14.3793 24.2198 14.3793 23.9447C14.3793 23.4324 13.6954 23.2522 12.907 23.0435C11.7197 22.7305 10.2569 22.332 10.2569 20.6435C10.2569 19.0688 11.3873 18.2056 13.4484 18.2056C14.8162 18.2056 16.0605 18.8506 16.5449 19.7897L16.5829 19.8562L14.9112 20.9091L14.8732 20.8332C14.5598 20.3305 13.9709 20.0364 13.325 20.0364C12.5081 20.0364 12.5081 20.4063 12.5081 20.5202C12.5081 20.966 13.1635 21.1463 13.9139 21.3644C15.1202 21.7059 16.6304 22.1138 16.6304 23.8688C16.6304 25.4814 15.5001 26.2877 13.192 26.3352C13.1635 26.3352 13.116 26.3352 13.078 26.3352ZM19.385 26.2593V20.0648H17.0484V18.2815H23.8968V20.0648H21.5411V26.2593H19.385Z" fill="#18273A" fill-opacity="0.94"/>
</svg>
